<svg width="50" height="36" viewBox="0 0 50 36" fill="none" xmlns="http://www.w3.org/2000/svg">
<rect width="50" height="36" rx="4" fill="#0060AF"/>
<path fill-rule="evenodd" clip-rule="evenodd" d="M10.2837 21.4497C10.2837 20.9665 10.2892 19.6751 10.2767 19.516C10.2876 17.5943 8.81715 16.2387 7.8882 16.3444C7.24539 16.3974 6.70656 16.6465 6.41742 17.3629C6.14921 18.0307 6.38901 18.9188 7.28036 19.1272C8.23335 19.3511 8.79001 19.5373 9.19278 19.8C9.68629 20.1216 10.0892 20.7362 10.0999 21.4504" fill="white"/>
<path fill-rule="evenodd" clip-rule="evenodd" d="M9.88545 21.4506C9.88855 20.8313 9.52477 20.2837 9.04931 19.9894C8.62756 19.7293 8.06136 19.5585 7.14793 19.3382C6.86557 19.2696 6.57022 19.1172 6.47879 18.9229C6.23692 19.1544 6.19298 19.6751 6.23554 19.9794C6.28499 20.3314 6.71801 20.9117 7.37002 20.9345C7.76819 20.9497 8.2716 20.8531 8.51301 20.8043C8.92947 20.7189 9.58837 20.9667 9.69326 21.4499" fill="white"/>
<path fill-rule="evenodd" clip-rule="evenodd" d="M10.6206 13.3496C9.51498 13.3496 8.56015 14.0424 8.56349 15.2411C8.56694 16.2492 9.4201 16.7888 9.72465 17.1743C10.1847 17.7551 10.4337 18.4427 10.4595 19.4946C10.4797 20.3319 10.4787 21.1586 10.4832 21.4516H10.7271C10.723 21.1451 10.7119 20.2674 10.7244 19.4687C10.741 18.4164 10.999 17.7551 11.4593 17.1743C11.7665 16.7888 12.6188 16.2492 12.6207 15.2411C12.6249 14.0424 11.6704 13.3496 10.566 13.3496" fill="white"/>
<path fill-rule="evenodd" clip-rule="evenodd" d="M10.901 21.4497C10.901 20.9665 10.8952 19.6751 10.9076 19.516C10.8967 17.5943 12.3663 16.2387 13.296 16.3444C13.9388 16.3974 14.477 16.6465 14.767 17.3629C15.0349 18.0307 14.7938 18.9188 13.9036 19.1272C12.9499 19.3511 12.3941 19.5373 11.9903 19.8C11.4973 20.1216 11.1226 20.7362 11.1111 21.4504" fill="white"/>
<path fill-rule="evenodd" clip-rule="evenodd" d="M11.2991 21.4506C11.2956 20.8313 11.6593 20.2837 12.1334 19.9894C12.557 19.7293 13.1238 19.5585 14.0364 19.3382C14.3193 19.2696 14.6143 19.1172 14.7041 18.9229C14.9472 19.1544 14.9911 19.6751 14.9484 19.9794C14.8981 20.3314 14.4661 20.9117 13.8152 20.9345C13.4173 20.9497 12.9111 20.8531 12.6707 20.8043C12.2559 20.7189 11.5951 20.9667 11.4898 21.4499" fill="white"/>
<path fill-rule="evenodd" clip-rule="evenodd" d="M11.6401 23.4499L11.4988 22.4691L11.8403 22.4199C11.9233 22.4092 12.0245 22.423 12.065 22.4724C12.1097 22.5241 12.1234 22.5668 12.132 22.6345C12.145 22.7185 12.1195 22.8153 12.0201 22.8636V22.8666C12.131 22.8666 12.1981 22.9423 12.2176 23.0702C12.2204 23.0973 12.2289 23.1624 12.2204 23.2168C12.1978 23.3463 12.1166 23.3881 11.9793 23.4063L11.6401 23.4499ZM11.8599 23.2744C11.9004 23.2688 11.9415 23.2668 11.9735 23.2473C12.0228 23.2168 12.0183 23.1517 12.0114 23.1032C11.9944 22.9968 11.9652 22.9563 11.8463 22.973L11.7716 22.9839L11.819 23.2798L11.8599 23.2744ZM11.7885 22.8211C11.8337 22.8142 11.8949 22.809 11.9204 22.7682C11.9339 22.741 11.9509 22.7194 11.9396 22.6588C11.9257 22.5871 11.9007 22.5425 11.8047 22.5598L11.7153 22.5735L11.7507 22.8248L11.7885 22.8211Z" fill="white"/>
<path fill-rule="evenodd" clip-rule="evenodd" d="M13.1194 22.8601C13.1221 22.8784 13.1252 22.8987 13.1263 22.9169C13.1539 23.0957 13.1194 23.2439 12.9078 23.2847C12.5949 23.3419 12.5349 23.1573 12.48 22.8987L12.4506 22.7587C12.4075 22.5114 12.389 22.3241 12.694 22.2663C12.8659 22.2365 12.9796 22.3016 13.0268 22.4642C13.0342 22.4884 13.0434 22.5124 13.0469 22.5369L12.8597 22.5736C12.8381 22.5124 12.8095 22.4032 12.7253 22.4124C12.5742 22.4298 12.6241 22.6083 12.6396 22.6831L12.6958 22.9516C12.7127 23.0328 12.7463 23.1625 12.8771 23.1375C12.9832 23.1173 12.9369 22.9601 12.9275 22.8956" fill="white"/>
<path fill-rule="evenodd" clip-rule="evenodd" d="M13.4196 23.1568L13.355 22.1417L13.6063 22.0688L14.1334 22.9517L13.9354 23.0079L13.8105 22.7836L13.5908 22.8463L13.6192 23.1014L13.4196 23.1568ZM13.5724 22.6824L13.7312 22.6387L13.5203 22.228L13.5724 22.6824Z" fill="white"/>
<path fill-rule="evenodd" clip-rule="evenodd" d="M7.20986 22.3893C7.28853 22.15 7.35892 21.9738 7.65921 22.052C7.81989 22.0947 7.91949 22.162 7.91477 22.3393C7.91397 22.3788 7.90028 22.4191 7.89131 22.458L7.70441 22.409C7.72891 22.311 7.74444 22.2333 7.61746 22.1962C7.47071 22.1579 7.43494 22.3271 7.4147 22.4001L7.33868 22.6661C7.31452 22.7451 7.28554 22.8757 7.4147 22.9095C7.52143 22.9367 7.58607 22.8372 7.62471 22.6919L7.49406 22.6589L7.53926 22.505L7.84668 22.5989L7.70073 23.1118L7.55927 23.0753L7.59113 22.9668H7.5871C7.52189 23.0556 7.44253 23.0649 7.37295 23.0521C7.06552 22.9732 7.09761 22.7823 7.17099 22.5272" fill="white"/>
<path fill-rule="evenodd" clip-rule="evenodd" d="M8.35421 22.8227L8.26162 23.2399L8.05322 23.1972L8.27531 22.2229L8.63058 22.2991C8.83853 22.3418 8.90132 22.4297 8.87188 22.6109C8.85509 22.7148 8.80115 22.8267 8.66946 22.8176L8.66808 22.816C8.77941 22.8529 8.78884 22.9064 8.7694 22.9985C8.76101 23.0378 8.70316 23.2759 8.74307 23.3143L8.74445 23.3436L8.5288 23.2901C8.51983 23.2242 8.55042 23.1055 8.5625 23.0397C8.57457 22.9816 8.59401 22.8996 8.5319 22.8689C8.48337 22.8442 8.4652 22.8454 8.41022 22.8335L8.35421 22.8227ZM8.38975 22.6717L8.53006 22.7077C8.61529 22.7195 8.66267 22.6775 8.67946 22.5796C8.69465 22.4899 8.67498 22.4549 8.5985 22.4375L8.44806 22.4085L8.38975 22.6717Z" fill="white"/>
<path fill-rule="evenodd" clip-rule="evenodd" d="M9.69096 22.4405L9.89707 22.4633L9.80828 23.1483C9.76515 23.3654 9.67682 23.4603 9.4254 23.4306C9.16961 23.3998 9.10889 23.2892 9.1243 23.0703L9.21378 22.386L9.42149 22.4085L9.33236 23.0775C9.32281 23.1502 9.30521 23.2579 9.44116 23.271C9.56181 23.2797 9.58918 23.2037 9.60286 23.1092" fill="white"/>
<path fill-rule="evenodd" clip-rule="evenodd" d="M10.124 23.4679L10.1861 22.4885L10.582 22.5048C10.7692 22.5137 10.8181 22.6588 10.8124 22.7974C10.8068 22.8816 10.7792 22.9757 10.702 23.0268C10.6386 23.0701 10.557 23.0804 10.4816 23.0769L10.3526 23.0701L10.3268 23.4806L10.124 23.4679ZM10.3583 22.9207L10.4632 22.9263C10.5484 22.9293 10.6049 22.8973 10.6122 22.7784C10.6165 22.6643 10.571 22.6448 10.4605 22.6402L10.3775 22.6375L10.3583 22.9207Z" fill="white"/>
<path fill-rule="evenodd" clip-rule="evenodd" d="M38.0526 14.2961L36.4788 17.0105C35.8848 16.552 35.1595 16.2148 34.234 16.2148C32.0438 16.2148 31.1541 17.766 31.1541 18.8587C31.1541 19.67 31.7131 20.8666 33.6618 20.8666C34.4799 20.8666 35.6427 20.326 35.9774 20.0799L34.4209 23.2291C33.679 23.3697 33.4351 23.4569 32.8072 23.4754C29.3191 23.5743 27.9097 21.5382 27.9106 19.4578C27.9131 16.7074 30.4863 13.3626 34.7525 13.3626C35.0138 13.3626 35.3335 13.4487 35.6069 13.5438L35.8833 13.208" fill="white"/>
<path fill-rule="evenodd" clip-rule="evenodd" d="M44.5468 13.2932L44.9924 23.1585H41.6757L41.6739 21.4667H39.4122L38.6679 23.1585H35.0708L38.8315 16.1139L37.9835 16.1086L39.5946 13.2932H44.5468ZM41.6523 16.3112L40.3737 19.1808H41.6909L41.6523 16.3112Z" fill="white"/>
<path fill-rule="evenodd" clip-rule="evenodd" d="M25.817 13.2932C27.4594 13.3019 28.3876 14.1491 28.3876 15.3728C28.3876 16.5011 27.4087 17.4996 26.3342 18.016C27.4405 18.4025 27.5362 19.3511 27.5362 20.0221C27.5362 21.6436 25.8241 23.1585 23.5985 23.1585H18.7446L20.638 16.212L19.8602 16.2077L21.4501 13.2932C21.4501 13.2932 24.4813 13.2844 25.817 13.2932ZM24.2055 17.293C24.5453 17.293 25.1452 17.2113 25.2951 16.5865C25.4595 15.9082 24.8965 15.8899 24.6265 15.8899L23.6615 15.886L23.325 17.293H24.2055ZM22.8412 19.0364L22.397 20.6577H23.5333C23.9802 20.6577 24.5894 20.4468 24.7387 19.9192C24.8862 19.3901 24.4603 19.0364 24.0149 19.0364H22.8412Z" fill="white"/>
<path fill-rule="evenodd" clip-rule="evenodd" d="M10.6642 24.3708C8.98354 24.3708 7.25652 23.9775 5.53169 23.1996L5.48936 23.1798L5.46912 23.1389C4.69509 21.5863 4.28564 19.8884 4.28564 18.227C4.28564 16.5681 4.6783 14.9426 5.45279 13.3922L5.47418 13.351L5.51731 13.3305C7.11287 12.6122 8.8292 12.2485 10.6205 12.2485C12.289 12.2485 14.0711 12.6534 15.7731 13.4217L15.8166 13.4402L15.8369 13.4822C16.6256 15.0633 17.0416 16.7609 17.0416 18.3949C17.0416 20.0222 16.6422 21.6492 15.8524 23.2293L15.8317 23.2708L15.7878 23.29C14.2165 23.9967 12.4447 24.3708 10.6642 24.3708ZM5.69132 22.9867C7.36682 23.7358 9.03806 24.1139 10.6642 24.1139C12.3885 24.1139 14.1032 23.7558 15.6297 23.0769C16.388 21.5457 16.7724 19.9698 16.7724 18.3949C16.7724 16.8134 16.3712 15.1685 15.6124 13.6338C13.9607 12.8961 12.2357 12.5048 10.6205 12.5048C8.88636 12.5048 7.22409 12.8543 5.67683 13.5439C4.93408 15.0466 4.55604 16.6213 4.55604 18.227C4.55604 19.8356 4.9488 21.4812 5.69132 22.9867Z" fill="white"/>
</svg>
