<svg width="50" height="36" viewBox="0 0 50 36" fill="none" xmlns="http://www.w3.org/2000/svg">
<rect width="50" height="36" rx="4" fill="white"/>
<path fill-rule="evenodd" clip-rule="evenodd" d="M8.10853 21.3776L9.8054 23.4957H5.60427L8.10853 21.3776ZM7.57494 20.7233L4.28861 23.5021L4.28726 16.6678L7.57494 20.7233ZM15.4821 13.8415C15.4821 13.8415 14.7607 13.4972 13.9226 13.5475C12.9644 13.6044 12.1628 13.9748 11.702 14.4636C11.412 14.7706 11.0914 15.1452 10.9304 15.552C10.6969 16.1405 10.647 16.9181 10.647 16.9181C10.647 16.9181 10.3119 16.6314 9.89204 15.796C9.40385 14.8243 9.27032 14.2356 9.20416 13.5641C9.14527 12.9748 9.23771 12.3921 9.23771 12.3921H15.4821V13.8415ZM15.4821 15.779V20.0883C15.4821 20.0883 15.0939 20.2386 14.7773 20.2386C14.4606 20.2386 13.9214 20.1913 13.2951 19.8442C12.6733 19.4999 12.3292 19.0834 12.0624 18.706C11.7918 18.3221 11.5684 17.79 11.502 17.4065C11.4486 17.0997 11.3911 16.3345 11.702 15.7125C11.8707 15.375 12.3234 14.7965 13.1951 14.7636C13.9056 14.7361 14.2996 14.9244 14.6607 15.1242C15.3479 15.5051 15.4821 15.779 15.4821 15.779ZM8.68269 19.7857L9.80903 18.8393C9.45007 18.3771 9.35521 18.203 8.95393 17.6062C8.54309 16.9955 8.19895 16.3236 7.90466 15.5352C7.58612 14.6811 7.50918 14.2017 7.54435 13.5641C7.58841 12.7529 7.7714 12.3921 7.7714 12.3921H4.28564L4.28726 14.2858C4.28726 14.2858 6.95551 17.6564 8.68269 19.7857ZM11.901 23.4926H15.4821V20.8605C15.4821 20.8605 14.5939 21.2712 14.0165 21.3044C13.6728 21.3246 13.3391 21.3379 12.8008 21.1936C12.2024 21.0333 11.8624 20.8771 11.3078 20.416C10.8623 20.0461 10.353 19.4999 10.353 19.4999L9.22006 20.4521C9.7457 21.1002 10.1339 21.5719 10.2528 21.6989C10.7637 22.2432 10.9803 22.4432 11.3244 22.6372C11.6684 22.8316 12.8178 22.821 12.8178 22.821L11.901 23.4926Z" fill="#E94E0F"/>
<path fill-rule="evenodd" clip-rule="evenodd" d="M42.5665 21.1511C42.5665 21.9138 42.6685 23.1674 41.8212 23.4725V23.5233H45.0392V23.4725C44.1925 23.1506 44.2941 21.9138 44.2941 21.1511V14.7638C44.2941 14.0015 44.1925 12.7477 45.0392 12.4258V12.375H41.8212V12.4258C42.6851 12.7477 42.5665 13.9845 42.5665 14.7638V21.1511ZM30.7666 14.7638L36.5762 22.134C37.3212 23.0996 37.8466 23.6589 39.0491 24.0653V14.5605C39.0491 13.6118 39.0491 12.934 39.93 12.4258V12.375H36.9488V12.4258C37.8466 12.934 37.8293 13.6118 37.8293 14.5605V20.9818L31.6306 13.1542L31.3932 12.8154C31.2749 12.6799 31.2072 12.5952 31.1394 12.392V12.375H28.6662V12.4258C29.547 12.934 29.547 13.6118 29.547 14.5605V21.321C29.547 22.2695 29.547 22.9471 28.6496 23.4725V23.5233H31.6476V23.4725C30.7498 22.9471 30.7666 22.2695 30.7666 21.321V14.7638ZM21.2968 16.8649V13.5442L22.4313 13.4253C23.4477 13.3237 24.5315 13.9337 24.5315 15.1029C24.5315 16.4922 22.9563 16.8649 21.8557 16.8649H21.2968ZM21.2968 22.1679V17.9829L22.4821 17.9152C23.9727 17.8304 25.5647 18.5423 25.5647 20.1856C25.5647 21.7952 24.1593 22.4389 22.7701 22.3035L21.2968 22.1679ZM19.5689 21.1343C19.5689 21.9138 19.6706 23.1506 18.8235 23.4725V23.5233H21.6183C22.8885 23.5233 24.227 23.5743 25.4123 22.9982C26.5471 22.4559 27.445 21.3376 27.445 20.0329C27.445 18.3728 26.2083 17.3561 24.6839 17.0339C25.6495 16.6106 26.3775 15.9668 26.3775 14.8316C26.3775 13.3237 25.0737 12.375 22.8381 12.375H18.8235V12.4258C19.6877 12.7477 19.5689 13.9845 19.5689 14.7468V21.1343Z" fill="#005B6A"/>
</svg>
