<svg width="51" height="36" viewBox="0 0 51 36" fill="none" xmlns="http://www.w3.org/2000/svg">
<rect width="51" height="36" rx="4" fill="#00529C"/>
<path fill-rule="evenodd" clip-rule="evenodd" d="M15.1189 15.6174H17.5496C18.5339 15.6174 19.2678 16.0478 19.2678 16.9539C19.2678 17.6182 18.9276 17.9881 18.3367 18.1842V18.1991C19.041 18.3429 19.4044 18.7205 19.4044 19.3618C19.4044 20.6229 18.291 20.8869 17.3447 20.8869H15.1189V15.6174ZM16.5268 17.7011H16.9209C17.3828 17.7011 17.8601 17.5879 17.8601 17.1421C17.8601 16.6595 17.4056 16.6138 16.9357 16.6138H16.5268V17.7011ZM16.5268 19.8906H16.944C17.4584 19.8906 17.9958 19.815 17.9958 19.2789C17.9958 18.7055 17.4434 18.6522 16.9587 18.6522H16.5268V19.8906Z" fill="white"/>
<path fill-rule="evenodd" clip-rule="evenodd" d="M21.2528 15.6174H22.9792L25.0161 20.8869H23.4712L23.0778 19.7623H21.094L20.6773 20.8869H19.2463L21.2528 15.6174ZM22.1163 16.7048H22.1004L21.4194 18.766H22.7444L22.1163 16.7048Z" fill="white"/>
<path fill-rule="evenodd" clip-rule="evenodd" d="M25.2122 15.6174H27.0066L28.7936 19.1961H28.8084L28.786 15.6174H30.0736V20.8869H28.3244L26.4763 17.2859H26.4617L26.5069 20.8869H25.2122V15.6174Z" fill="white"/>
<path fill-rule="evenodd" clip-rule="evenodd" d="M30.5515 15.6174H31.9597V17.7696H31.9749L33.5644 15.6174H35.2611L33.3072 18.0709L35.4125 20.8869H33.6174L31.9749 18.4939H31.9597V20.8869H30.5515V15.6174Z" fill="white"/>
<path fill-rule="evenodd" clip-rule="evenodd" d="M37.1584 15.6174H39.5892C40.5733 15.6174 41.308 16.0478 41.308 16.9539C41.308 17.6182 40.9678 17.9881 40.3769 18.1842V18.1991C41.081 18.3429 41.4444 18.7205 41.4444 19.3618C41.4444 20.6229 40.3313 20.8869 39.3852 20.8869H37.1584V15.6174ZM38.5671 17.7011H38.9605C39.4225 17.7011 39.8992 17.5879 39.8992 17.1421C39.8992 16.6595 39.4454 16.6138 38.9761 16.6138H38.5671V17.7011ZM38.5671 19.8906H38.9837C39.4981 19.8906 40.0361 19.815 40.0361 19.2789C40.0361 18.7055 39.4834 18.6522 38.9987 18.6522H38.5671V19.8906Z" fill="white"/>
<path fill-rule="evenodd" clip-rule="evenodd" d="M41.7566 15.6174H44.2705C45.2092 15.6174 45.9744 16.04 45.9744 16.9465C45.9744 17.6485 45.6411 18.1166 44.9598 18.2749V18.2899C45.4132 18.411 45.4441 18.8108 45.7091 19.4526L46.2242 20.8869H44.7554L44.4524 19.9363C44.1645 19.0302 43.9827 18.8032 43.4602 18.8032H43.1647V20.8869H41.7566V15.6174ZM43.1647 17.8068H43.536C43.9903 17.8068 44.566 17.7914 44.566 17.1952C44.566 16.7048 44.0732 16.6138 43.536 16.6138H43.1647V17.8068Z" fill="white"/>
<mask id="mask0_306_2340" style="mask-type:luminance" maskUnits="userSpaceOnUse" x="2" y="12" width="47" height="12">
<path fill-rule="evenodd" clip-rule="evenodd" d="M2.91431 23.5481H48.0203V12.96H2.91431V23.5481Z" fill="white"/>
</mask>
<g mask="url(#mask0_306_2340)">
<path fill-rule="evenodd" clip-rule="evenodd" d="M46.6121 20.8869H48.0202V15.6174H46.6121V20.8869Z" fill="white"/>
<path fill-rule="evenodd" clip-rule="evenodd" d="M11.905 12.96H4.53426C3.63958 12.96 2.91431 13.701 2.91431 14.6153V14.6328V21.8932C2.91431 22.7985 3.62622 23.5345 4.50937 23.5481H11.9011C12.796 23.5481 13.5215 22.807 13.5215 21.8932L13.525 14.6153C13.525 13.701 12.7999 12.96 11.905 12.96ZM5.41049 22.6997L5.00832 22.7041C4.52158 22.7041 4.12702 22.3054 4.12702 21.8134L4.12472 21.7433V15.0221L4.12725 14.6602C4.14546 14.184 4.50821 13.8008 4.98343 13.8008H5.8009C6.54162 13.8008 7.14244 14.443 7.14244 15.2008C7.14244 15.5754 6.99518 15.9155 6.75664 16.1627L4.67092 18.2729L6.62574 20.2575C6.87787 20.5165 7.03021 20.8571 7.03021 21.23C7.03021 22.0418 6.30493 22.6997 5.41049 22.6997ZM11.4201 22.6931L7.77554 22.6915C7.77554 22.6915 8.19706 21.7833 8.19706 21.2213C8.19706 20.536 7.96705 19.9237 7.6073 19.5185L6.3607 18.2515L7.63311 16.9408C8.01176 16.5858 8.26343 15.9557 8.26343 15.2381C8.26343 14.6698 8.10579 14.1663 7.85205 13.8008H8.7352C9.47615 13.8008 10.077 14.443 10.077 15.2008C10.077 15.5754 9.92994 15.9155 9.6914 16.1627L7.64555 18.2508L11.8947 22.571C11.7601 22.6556 11.5902 22.6931 11.4201 22.6931ZM12.3102 21.3442L9.26504 18.2499L10.7154 16.7802C11.0108 16.4123 11.198 15.8578 11.198 15.2381C11.198 14.6661 11.038 14.1505 10.782 13.7847L11.4312 13.804C11.9179 13.804 12.3125 14.2033 12.3125 14.6951L12.3102 21.3442Z" fill="white"/>
</g>
</svg>
