<svg width="50" height="36" viewBox="0 0 50 36" fill="none" xmlns="http://www.w3.org/2000/svg">
<rect width="50" height="36" rx="4" fill="#108EE9"/>
<path fill-rule="evenodd" clip-rule="evenodd" d="M10.7925 12.2402H10.6258C9.24083 12.2696 7.87667 12.8282 6.87083 13.7892C5.69167 14.8896 5.015 16.4932 5 18.1093V18.2597C5.02833 19.8422 5.68583 21.4088 6.83083 22.4975C7.845 23.4853 9.235 24.0607 10.6458 24.0842H10.8092C12.7158 24.0624 14.5508 22.9864 15.5425 21.3509C16.3908 19.9951 16.6517 18.2899 16.275 16.7351C15.9592 15.3936 15.1625 14.1714 14.0592 13.3549C13.1217 12.6493 11.9617 12.2621 10.7925 12.2402ZM8.20333 17.0526C8.74167 17.2114 9.31583 17.1148 9.84 16.9442C10.1288 16.8483 10.4132 16.7385 10.6975 16.6288L10.6976 16.6288C11.1573 16.4514 11.617 16.274 12.0958 16.1546C12.7367 16.0034 13.4567 16.1252 13.97 16.5536C14.0716 16.652 14.0713 16.794 14.0711 16.9288C14.0711 16.9621 14.071 16.9949 14.0725 17.0266C14.0668 17.4602 14.0688 17.894 14.0708 18.3277V18.3278V18.3278V18.3278V18.3278C14.0738 18.967 14.0768 19.6061 14.055 20.2446C13.9777 20.2115 13.9008 20.1763 13.8238 20.141L13.8238 20.141L13.8237 20.141L13.8237 20.141L13.8237 20.141C13.5065 19.9958 13.1875 19.8498 12.8308 19.8431C12.087 19.8019 11.3993 20.0507 10.7104 20.3001C10.1498 20.503 9.58833 20.7062 8.995 20.7536C8.45667 20.7914 7.89417 20.6629 7.4575 20.3362C7.36804 20.2113 7.37251 20.0551 7.37687 19.9022C7.37865 19.84 7.38041 19.7784 7.37583 19.7196C7.38413 19.3315 7.38045 18.9426 7.37678 18.5538V18.5538V18.5537V18.5537V18.5537C7.37086 17.9267 7.36493 17.2996 7.40917 16.6754C7.50739 16.7195 7.60191 16.772 7.6964 16.8245L7.6964 16.8245C7.85922 16.9149 8.02193 17.0053 8.20333 17.0526ZM19.5007 15.1901C19.206 15.192 18.9113 15.1939 18.6167 15.1903C18.6163 16.1874 18.6163 17.1847 18.6163 18.1821C18.6163 19.1795 18.6163 20.177 18.6158 21.1745C18.9441 21.1749 19.2722 21.1749 19.6003 21.1749C19.9284 21.1749 20.2566 21.1749 20.585 21.1753C21.0625 21.1762 21.545 21.0838 21.9717 20.8612C23.1067 20.3 23.7642 18.951 23.5467 17.7002C23.3667 16.3982 22.2383 15.292 20.9275 15.2038C20.4521 15.184 19.9764 15.1871 19.5007 15.1901ZM19.857 19.3975C19.8595 18.4241 19.8619 17.4506 19.8533 16.4772C19.9806 16.4811 20.1087 16.4789 20.2368 16.4766H20.2368H20.2368H20.2368H20.2369C20.5172 16.4717 20.798 16.4668 21.0725 16.5268C21.7567 16.6847 22.2842 17.3273 22.3325 18.0295C22.405 18.7284 22.0025 19.45 21.3625 19.7356C21.0156 19.9008 20.6343 19.8928 20.257 19.8848C20.1222 19.882 19.9879 19.8791 19.8558 19.8842L19.857 19.3975ZM25.7517 17.6104C25.7917 16.3126 26.9508 15.1466 28.2542 15.1912C29.5317 15.1777 30.6533 16.3184 30.7042 17.591C30.7174 18.3221 30.7154 19.0536 30.7133 19.7849C30.712 20.2476 30.7107 20.7103 30.7133 21.1728L30.7125 21.1728H30.7121C30.2984 21.1736 29.8854 21.1745 29.4725 21.1728C29.4704 20.9586 29.4706 20.7444 29.4708 20.5303V20.5303V20.5302V20.5302C29.471 20.3161 29.4712 20.1022 29.4692 19.8884C28.9819 19.8909 28.4949 19.8905 28.008 19.89H28.008H28.0079H28.0079C27.6672 19.8897 27.3265 19.8894 26.9858 19.8901C26.9846 20.0498 26.9852 20.2096 26.9858 20.3694V20.3694V20.3695V20.3695V20.3698C26.9868 20.6395 26.9878 20.9092 26.98 21.1787C26.7051 21.172 26.4305 21.1727 26.1561 21.1734H26.156H26.1558C26.0186 21.1738 25.8814 21.1742 25.7442 21.1736C25.7457 20.7417 25.7446 20.3097 25.7434 19.8777V19.8774C25.7414 19.1214 25.7395 18.3656 25.7517 17.6104ZM27.3033 16.9064C26.9651 17.2748 26.975 17.7718 26.9844 18.2481C26.9868 18.3692 26.9892 18.489 26.9858 18.6049C27.3168 18.6053 27.6479 18.605 27.979 18.6048H27.979H27.9791H27.9791C28.4758 18.6045 28.9727 18.6042 29.4692 18.6058C29.4661 18.4903 29.4687 18.3712 29.4714 18.2507L29.4714 18.2506C29.4818 17.785 29.4926 17.3002 29.1742 16.9325C28.73 16.3445 27.7633 16.331 27.3033 16.9064ZM32.8842 17.6238C32.9208 16.4814 33.8067 15.4213 34.9308 15.229C35.7675 15.0668 36.6642 15.3986 37.2092 16.0555C37.6308 16.5234 37.8458 17.1568 37.8458 17.7851C37.8475 18.5369 37.8469 19.2884 37.8464 20.04V20.044C37.8461 20.4205 37.8458 20.797 37.8458 21.1736C37.7053 21.1745 37.5646 21.174 37.4239 21.1735C37.1526 21.1725 36.8811 21.1715 36.61 21.1804C36.601 20.5403 36.6025 19.9 36.6039 19.2598C36.605 18.7673 36.6061 18.2749 36.6025 17.7826C36.6092 17.3256 36.3667 16.8703 35.97 16.6435C35.5583 16.3949 35.0008 16.4318 34.6233 16.7309C34.2967 16.977 34.1142 17.3869 34.12 17.7952C34.1181 18.4388 34.1184 19.0821 34.1186 19.7255C34.1188 20.2082 34.119 20.6908 34.1183 21.1736C33.9671 21.173 33.8159 21.1733 33.6647 21.1736C33.4001 21.1741 33.1354 21.1746 32.8708 21.1703C32.8797 20.6004 32.878 20.0304 32.8764 19.4604C32.8747 18.8481 32.8729 18.2358 32.8842 17.6238ZM40.4142 16.3504C40.8933 15.5977 41.7783 15.1122 42.6725 15.1979C43.6833 15.2609 44.58 16.037 44.86 17.0072C44.9634 17.3348 44.9683 17.677 44.9732 18.0188V18.0189C44.976 18.2144 44.9788 18.4099 45 18.6024V21.1669C44.6825 21.1757 44.365 21.1746 44.0475 21.1735C43.9417 21.1732 43.8358 21.1728 43.73 21.1728C43.7295 21.0348 43.7297 20.8968 43.7299 20.7587V20.7583C43.7304 20.4669 43.7309 20.1754 43.7242 19.8842C43.2215 19.8919 42.7186 19.8909 42.2155 19.8898H42.2154C41.892 19.8891 41.5685 19.8885 41.245 19.8901C41.2446 20.1039 41.2446 20.3177 41.2446 20.5316C41.2446 20.7455 41.2446 20.9594 41.2442 21.1736H40.0025C40.0021 20.6222 40.0021 20.0709 40.0021 19.5198C40.0021 18.9686 40.0021 18.4176 40.0017 17.8666C39.9958 17.3357 40.1217 16.7964 40.4142 16.3504ZM41.5558 16.9148C41.2243 17.2818 41.2341 17.7749 41.2436 18.2475C41.246 18.3688 41.2484 18.4888 41.245 18.6049C41.7973 18.6055 42.3496 18.6053 42.9016 18.6051L43.7292 18.6049C43.7255 18.4865 43.7281 18.3643 43.7307 18.2408V18.2405C43.7405 17.777 43.7507 17.2954 43.4317 16.93C42.9833 16.3411 42.0125 16.3336 41.5558 16.9148Z" fill="white"/>
</svg>
