<svg width="50" height="36" viewBox="0 0 50 36" fill="none" xmlns="http://www.w3.org/2000/svg">
<rect width="50" height="36" rx="4" fill="#E82529"/>
<path fill-rule="evenodd" clip-rule="evenodd" d="M22.1436 5.78682C22.3951 5.73472 22.6726 5.75135 22.8929 5.89434C23.1861 6.0739 23.3455 6.43119 23.3169 6.77185C23.2653 7.38703 22.7745 7.94198 22.1686 8.04876C21.8882 8.10086 21.5821 8.03805 21.3603 7.8522C21.1411 7.67485 21.0187 7.38703 21.037 7.10475C21.0854 6.494 21.5308 5.90394 22.1436 5.78682ZM31.4183 6.1212C31.6351 6.1024 31.8538 6.10522 32.0724 6.10804C32.2062 6.10977 32.34 6.11149 32.4732 6.10826C32.5892 6.10903 32.7052 6.10859 32.8212 6.10816C32.986 6.10754 33.1508 6.10692 33.3156 6.10974C33.3907 6.10198 33.4567 6.17699 33.4376 6.25162C33.2245 7.81324 33.0097 9.37473 32.7949 10.9362L32.7947 10.9382L32.7945 10.9396L32.7942 10.9412L32.794 10.9429L32.793 10.9501L32.7928 10.9519C32.6253 12.1697 32.4578 13.3874 32.2911 14.6051L32.2905 14.6089C32.2818 14.6655 32.2714 14.7336 32.2119 14.7592C32.1585 14.7733 32.1034 14.7727 32.0487 14.7722C32.0302 14.772 32.0118 14.7718 31.9934 14.7721C31.7181 14.7708 31.4428 14.7711 31.1676 14.7714H31.1675H31.1675H31.1675H31.1675H31.1675H31.1674H31.1674H31.1674H31.1674H31.1673H31.1673C30.8922 14.7717 30.6171 14.772 30.3422 14.7707C30.252 14.7843 30.1754 14.6942 30.201 14.6066C30.4298 12.9316 30.6602 11.2568 30.8905 9.58211C31.0433 8.47147 31.196 7.36084 31.3483 6.25014C31.3546 6.201 31.367 6.14189 31.4183 6.1212ZM15.6612 6.44057C15.39 6.43775 15.1187 6.43493 14.849 6.45373C14.7611 6.4807 14.7031 6.5679 14.6976 6.65842C14.5427 7.82836 14.3884 8.99842 14.234 10.1685C14.1138 11.0804 13.9935 11.9922 13.8729 12.9041C13.8377 13.1531 13.8652 13.4125 13.9605 13.6456C14.2545 14.3683 15.033 14.8157 15.7929 14.8124L16.1423 14.8126C17.1875 14.8133 18.2329 14.814 19.278 14.812C19.3733 14.8176 19.4583 14.737 19.4627 14.6417L19.5212 14.2458C19.5817 13.8363 19.6423 13.4266 19.6991 13.0168C19.72 12.9188 19.6247 12.8357 19.5313 12.8501C19.1344 12.8497 18.7375 12.8499 18.3406 12.8502C17.7123 12.8505 17.0839 12.8509 16.4556 12.8486C16.2371 12.8586 16.0484 12.6406 16.0909 12.4237C16.2258 11.4694 16.363 10.5153 16.5003 9.56125L16.5003 9.56121L16.5003 9.56115L16.5003 9.56109L16.5003 9.56103L16.5003 9.56097L16.5004 9.56091L16.5004 9.56085L16.5004 9.56079L16.5004 9.56073L16.5004 9.56067C16.6376 8.60677 16.7749 7.65287 16.9097 6.69869C16.9336 6.57713 16.8364 6.4504 16.714 6.44486C16.5998 6.43824 16.4854 6.43938 16.3709 6.44052H16.3709H16.3709H16.3709H16.3709H16.3709H16.3709H16.3709H16.3709H16.3709H16.3709C16.3002 6.44122 16.2294 6.44192 16.1587 6.44079C15.9931 6.44402 15.8272 6.4423 15.6613 6.44057H15.6613H15.6613H15.6613H15.6613H15.6612H15.6612H15.6612H15.6612H15.6612H15.6612ZM25.2809 8.46479C25.9271 8.392 26.5785 8.38683 27.2284 8.3824C27.8324 8.38609 28.4676 8.52465 28.939 8.92664C29.3701 9.28725 29.6047 9.84147 29.6523 10.3961C29.6862 10.7046 29.6448 11.0117 29.6035 11.3177L29.6035 11.3177C29.5917 11.4052 29.5799 11.4925 29.5698 11.5799C29.4604 12.4107 29.3372 13.2394 29.2141 14.0681L29.1395 14.5704C29.1359 14.6838 29.0299 14.7692 28.9196 14.754C28.7013 14.7533 28.483 14.7537 28.2647 14.754H28.2641C27.9306 14.7546 27.5971 14.7552 27.2635 14.7518C27.1374 14.7526 27.0473 14.6162 27.0799 14.4973L27.1329 14.1222C27.2249 13.4697 27.317 12.8169 27.416 12.1651C27.4308 12.0614 27.4471 11.9579 27.4635 11.8542C27.5147 11.5287 27.5661 11.2028 27.57 10.8727L27.5696 10.8546C27.5658 10.6654 27.5615 10.4524 27.4234 10.3081C27.2672 10.1474 27.0399 10.085 26.8248 10.058C26.5462 10.0244 26.2651 10.0524 25.9898 10.0979L25.7632 11.7078L25.7631 11.7082L25.7629 11.7097C25.6214 12.7145 25.48 13.7192 25.3388 14.7241C25.013 14.4433 24.5852 14.2623 24.1512 14.3103C23.8316 14.321 23.5435 14.4743 23.2781 14.6402L23.398 13.8085C23.5603 12.6825 23.7225 11.5567 23.8913 10.4315C23.9076 10.3332 23.9226 10.2345 23.9377 10.1359C23.9801 9.85799 24.0225 9.57988 24.0915 9.3072C24.1472 9.09586 24.2351 8.87639 24.4159 8.74227C24.6619 8.55348 24.9793 8.50801 25.2773 8.4653L25.2809 8.46479ZM21.1301 8.53861C21.076 8.53837 21.0216 8.53812 20.9696 8.55347C20.8824 8.58413 20.831 8.67281 20.8248 8.76222C20.7182 9.53475 20.6108 10.3072 20.5035 11.0797L20.5034 11.0799L20.5034 11.0802L20.5034 11.0804L20.5033 11.0807L20.5033 11.0809L20.5033 11.0812L20.5032 11.0814L20.5032 11.0817C20.3417 12.2441 20.1801 13.4066 20.021 14.5693C19.9957 14.6705 20.0895 14.7673 20.19 14.7533C20.7533 14.7544 21.3167 14.7548 21.8801 14.7533C22.0186 14.7614 22.1304 14.6358 22.1334 14.5009C22.2475 13.6797 22.3624 12.8584 22.4772 12.0372L22.4772 12.037L22.4773 12.0367L22.4773 12.0364L22.4773 12.0362L22.4774 12.0359L22.4774 12.0357L22.4775 12.0354L22.4775 12.0352C22.6281 10.9584 22.7786 9.8817 22.9277 8.80471C22.9559 8.67761 22.854 8.54054 22.7231 8.54164C22.4403 8.53798 22.1575 8.53858 21.8747 8.53917C21.644 8.53966 21.4133 8.54014 21.1826 8.53832C21.1651 8.53877 21.1476 8.53869 21.1301 8.53861ZM34.9965 8.72638C35.0673 8.63734 35.1773 8.5845 35.2909 8.58931C35.484 8.58942 35.6771 8.5891 35.8703 8.58877H35.8703H35.8704H35.8704H35.8704H35.8704H35.8705H35.8705H35.8705H35.8706H35.8706H35.8707H35.8707H35.8707H35.8708C36.2894 8.58807 36.708 8.58736 37.1265 8.59115C37.2625 8.58709 37.3215 8.777 37.2196 8.86124C36.6706 9.47517 36.1205 10.088 35.5703 10.7009L35.0841 11.2425L35.6339 12.4299C36.103 13.4428 36.5722 14.4559 37.04 15.4697C37.1306 15.6186 37.0074 15.8311 36.8337 15.8192C36.2828 15.8215 35.7315 15.8211 35.1805 15.8196C35.0739 15.8277 34.9852 15.7505 34.9493 15.6545C34.5837 14.8531 34.2175 14.052 33.8513 13.2509L33.8488 13.2453L33.8487 13.2451L33.8485 13.2449L33.8484 13.2446L33.8483 13.2444L33.8482 13.2441L33.8481 13.2439L33.848 13.2436C33.5341 12.5571 33.2203 11.8705 32.9069 11.1838C33.2835 10.7414 33.6598 10.2987 34.036 9.8561L34.0363 9.8557L34.0367 9.8553L34.037 9.8549L34.0373 9.8545L34.0377 9.8541L34.038 9.8537L34.0383 9.85331C34.3577 9.47757 34.677 9.10186 34.9965 8.72638ZM24.7622 15.1712C24.5518 15.0437 24.2938 15.0278 24.057 15.0729C23.4265 15.1819 22.9643 15.7912 22.9266 16.4182C22.9178 16.6665 23.0146 16.9173 23.1927 17.0895C23.4031 17.2983 23.7132 17.3884 24.0035 17.347C24.6383 17.2669 25.1625 16.6875 25.2083 16.0483C25.2336 15.7036 25.0639 15.3441 24.7622 15.1712ZM18.0576 15.7339C17.9055 15.7328 17.752 15.7317 17.6051 15.7764C17.3221 15.858 17.0875 16.0764 16.9735 16.3491C16.5709 17.2485 16.1682 18.1478 15.7654 19.0472L15.7638 19.0507L15.7622 19.0542C15.0454 20.6549 14.3285 22.2555 13.6127 23.8565C13.543 23.9699 13.6457 24.1236 13.7754 24.104C14.3513 24.1029 14.9271 24.0989 15.5029 24.0941C15.6232 24.0981 15.7412 24.0261 15.7877 23.9134C15.8865 23.6853 15.983 23.4562 16.0794 23.2272L16.0794 23.2271L16.0794 23.2271L16.0794 23.2271L16.0794 23.2271L16.0795 23.227L16.0795 23.2269C16.176 22.9977 16.2725 22.7686 16.3713 22.5404C16.3903 22.4695 16.467 22.4624 16.5282 22.4658C16.8215 22.4666 17.1148 22.4663 17.4082 22.4661C17.7993 22.4658 18.1905 22.4655 18.5816 22.4676C18.6406 22.4606 18.6966 22.5057 18.6974 22.5666C18.722 22.7935 18.7435 23.0206 18.765 23.2477C18.7845 23.4531 18.8039 23.6584 18.8257 23.8635C18.8356 24.0165 18.9767 24.141 19.1281 24.1332C19.2925 24.1332 19.457 24.1335 19.6214 24.1337H19.622C20.033 24.1343 20.444 24.1349 20.8549 24.1317C20.9975 24.1332 21.107 23.9803 21.0697 23.8432C20.8026 22.2304 20.5341 20.6177 20.2657 19.0049L20.2655 19.0038L20.2654 19.0033L20.2651 19.0014L20.2648 18.9996L20.2645 18.9978C20.1155 18.1031 19.9666 17.2083 19.8179 16.3136C19.771 15.9962 19.4825 15.7394 19.1633 15.7357C18.9583 15.7331 18.7531 15.7336 18.5479 15.7341H18.5479H18.5479H18.5478H18.5478H18.5478H18.5478C18.411 15.7345 18.2741 15.7349 18.1373 15.7343C18.1109 15.7343 18.0845 15.7341 18.058 15.7339H18.0579H18.0578H18.0577H18.0576ZM17.5936 19.5483C17.7787 19.0732 17.9638 18.5981 18.1571 18.1266C18.1963 18.0904 18.2498 18.1366 18.2388 18.1843L18.2637 18.456C18.3288 19.168 18.3939 19.8803 18.4547 20.5925C18.4705 20.6686 18.3997 20.7322 18.3272 20.7241C18.2053 20.7237 18.0834 20.7243 17.9614 20.7248H17.9613H17.9613H17.9612H17.9612H17.9611H17.961H17.961H17.961H17.9609H17.9609H17.9609H17.9608C17.7065 20.726 17.452 20.7272 17.1982 20.72C17.1424 20.6956 17.1648 20.6397 17.1832 20.5938L17.1832 20.5938C17.1874 20.5833 17.1914 20.5734 17.1942 20.5644C17.3293 20.2266 17.4614 19.8875 17.5936 19.5483ZM33.3324 16.7486C33.2447 16.7475 33.1566 16.7464 33.0715 16.7681C32.9633 16.7943 32.8801 16.8922 32.8779 17.0056C32.7747 18.0725 32.673 19.1396 32.5714 20.2068L32.5711 20.2104C32.5202 20.7446 32.4693 21.2788 32.4183 21.8129C32.3908 21.9348 32.4883 22.0667 32.6155 22.0608C32.9096 22.0633 33.2039 22.0627 33.4983 22.0621H33.4984H33.4984H33.4984H33.4984L33.7928 22.0616C33.898 22.0712 33.9966 21.9895 34.0091 21.8838C34.3199 20.3404 34.6295 18.7963 34.9389 17.2524L34.9815 17.04C35.0105 16.9328 34.9885 16.7692 34.854 16.7548C34.5675 16.7465 34.2807 16.7478 33.9938 16.7491H33.9937H33.9937H33.9937H33.9936C33.8037 16.7499 33.6137 16.7508 33.4237 16.7488C33.3935 16.7494 33.3631 16.749 33.3327 16.7486H33.3326H33.3326H33.3325H33.3324ZM30.9345 17.9896C30.1618 17.7771 29.3572 17.6777 28.5567 17.7206C27.8463 17.7472 27.1096 17.9016 26.5301 18.3391C25.9605 18.7566 25.5991 19.4047 25.411 20.0786C25.2347 20.717 25.164 21.3858 25.1889 22.0479C25.2164 22.6272 25.37 23.2461 25.8062 23.654C26.2658 24.0867 26.9139 24.2123 27.5198 24.2659C28.5138 24.3601 29.5288 24.216 30.4561 23.8436C30.5808 23.7985 30.7043 23.7272 30.7692 23.6056C30.827 23.4985 30.839 23.3774 30.8509 23.2569C30.8561 23.2042 30.8613 23.1515 30.8703 23.1002C30.9688 22.318 31.0669 21.5357 31.1651 20.7534L31.167 20.7379C31.2645 19.9608 31.362 19.1837 31.4597 18.4067C31.4726 18.3128 31.4751 18.1961 31.3879 18.137C31.2952 18.0775 31.1883 18.0526 31.0818 18.0277C31.0321 18.0162 30.9825 18.0046 30.9345 17.9896ZM27.4475 20.7333C27.5128 20.4215 27.6125 20.1044 27.824 19.8598C28.0351 19.6056 28.3679 19.4508 28.6986 19.4826C28.8881 19.4996 29.0754 19.5373 29.2612 19.5798L29.0865 20.9509L28.9119 22.322C28.6058 22.4104 28.2803 22.4754 27.9629 22.4174C27.6939 22.373 27.4871 22.1454 27.4131 21.8886C27.302 21.511 27.3673 21.1102 27.4475 20.7333ZM23.8256 17.8304H23.8256H23.8255C23.523 17.8287 23.2205 17.8269 22.9189 17.8388C22.8005 17.8647 22.7173 17.9766 22.7081 18.0956C22.6465 18.5436 22.5857 18.9917 22.5249 19.4398L22.5249 19.4399C22.3707 20.5768 22.2165 21.7137 22.048 22.8485C22.0386 22.9065 22.0298 22.9648 22.021 23.0233L22.021 23.0234C21.9695 23.364 21.9174 23.7096 21.7544 24.0165C21.6096 24.2987 21.3724 24.5256 21.0979 24.6789C20.911 24.7914 20.7097 24.8736 20.5087 24.9557C20.4534 24.9783 20.3981 25.0008 20.3432 25.024C20.2523 25.0525 20.1958 25.1519 20.2394 25.2431C20.3714 25.6599 20.5063 26.0756 20.6415 26.4912L20.6499 26.5135C20.6853 26.6085 20.7322 26.7345 20.8523 26.7222C21.2119 26.6601 21.5601 26.54 21.8981 26.4033C22.4387 26.1724 22.9662 25.8494 23.3111 25.3584C23.6204 24.9032 23.8037 24.3749 23.9368 23.8436C24.0884 23.2366 24.1658 22.6161 24.2432 21.9961L24.2432 21.9961L24.2432 21.996C24.2711 21.7721 24.299 21.5483 24.3304 21.3252C24.441 20.5349 24.5435 19.7434 24.6459 18.9518L24.646 18.9516L24.646 18.9513C24.6818 18.6746 24.7176 18.398 24.7538 18.1215C24.7663 18.042 24.7707 17.9493 24.7065 17.8898C24.6524 17.8286 24.5708 17.8293 24.4945 17.8298C24.4777 17.83 24.4611 17.8301 24.4452 17.8296C24.2388 17.8327 24.0321 17.8315 23.8256 17.8304ZM32.8537 22.7196C33.1305 22.6546 33.4362 22.6601 33.6894 22.8016C34.0094 22.9708 34.2173 23.3322 34.1971 23.6969C34.1696 24.2223 33.7917 24.6941 33.3075 24.8729C32.9622 25.0063 32.5506 24.9889 32.239 24.7787C31.9898 24.6165 31.8186 24.3305 31.8171 24.0283C31.8248 23.4268 32.2639 22.8489 32.8537 22.7196ZM35.62 27.2586C32.6114 27.1999 29.6003 27.3281 26.6038 27.5997C23.3276 27.9074 20.0606 28.3238 16.8199 28.901C15.2519 29.1855 13.6863 29.4943 12.1428 29.8949C12.4008 30.0371 12.6584 30.1803 12.916 30.3235C13.1923 30.4771 13.4686 30.6307 13.7454 30.7831C14.0602 30.9571 14.4389 31.0037 14.7871 30.9179C15.0181 30.8612 15.2489 30.8038 15.4797 30.7463C15.9254 30.6353 16.371 30.5244 16.8177 30.4188C19.7197 29.7223 22.6608 29.2069 25.6115 28.7731C28.277 28.3822 30.955 28.0792 33.64 27.8649C35.811 27.6935 37.9868 27.5753 40.1645 27.5465C39.9267 27.5073 39.687 27.4853 39.4474 27.4633C39.3704 27.4562 39.2935 27.4492 39.2166 27.4415C38.0205 27.337 36.8205 27.2834 35.62 27.2586Z" fill="#FEFEFE"/>
</svg>
