<svg width="938" height="442" viewBox="0 0 938 442" fill="none" xmlns="http://www.w3.org/2000/svg">
<path d="M937.896 185.572C937.975 169.082 935.303 152.666 929.959 136.815C897.518 43.5868 789.912 -13.2719 676.576 2.66731C575.562 16.8453 490.767 96.8936 493.045 186.658C493.632 210.552 493.217 234.476 493.045 258.399C492.853 281.277 498.259 303.939 508.92 324.945C547.228 400.502 637.13 452.165 747.463 440.306C835.467 430.854 914.394 368.007 932.789 296.471C939.173 271.726 937.724 246.775 938 221.795C937.896 209.76 937.931 197.666 937.896 185.572ZM850.341 249.681C850.341 251.941 850.341 254.407 850.341 256.785C849.65 254.386 849.12 251.955 848.754 249.505C848.132 245.66 846.821 241.99 846.2 238.145C841.713 223.028 835.432 208.791 823.25 196.873C800.748 174.77 768.791 174.447 745.944 196.404C729.034 212.695 721.545 232.509 718.887 253.614C716.08 273.041 718.511 292.757 725.997 311.266C729.655 310.414 729.448 307.831 730.759 306.099C733.52 302.078 735.832 297.763 738.938 293.976C750.776 279.563 765.616 268.468 787.703 270.023C809.79 271.579 823.629 284.7 834.5 300.082C837.296 304.045 835.191 306.775 832.947 309.827C802.06 351.745 757.678 371.471 699.664 366.627C671.989 364.124 645.927 354.318 625.133 338.584C604.338 322.85 589.853 301.976 583.706 278.888C581.675 271.379 580.656 263.698 580.669 255.992C580.669 233.448 580.669 210.904 580.669 188.478C580.669 119.349 651.97 67.8038 732.933 75.6119C787.323 80.8663 851.48 124.193 850.479 190.386C850.238 205.767 850.479 221.178 850.272 236.56L850.341 249.681Z" fill="#33CC99"/>
<path d="M444.962 185.56C445.053 169.066 442.356 152.647 436.954 136.806C404.716 43.5839 296.955 -13.271 183.603 2.66713C82.5727 16.8442 -2.20004 96.8871 0.0435381 186.646C0.664837 210.538 0.216121 234.46 0.0435381 258.382C-0.207442 281.258 5.1409 303.929 15.7486 324.952C54.062 400.505 143.978 452.164 254.327 440.306C342.345 430.855 421.284 368.012 439.681 296.481C446.067 271.737 444.617 246.788 444.928 221.809C444.997 209.746 445.031 197.653 444.962 185.56ZM357.428 249.664C357.428 251.925 357.428 254.39 357.428 256.768C356.754 254.366 356.224 251.936 355.841 249.488C355.219 245.643 353.908 241.974 353.286 238.129C348.799 223.013 342.517 208.777 330.367 196.86C307.862 174.758 275.866 174.435 253.05 196.391C236.102 212.681 228.612 232.494 225.955 253.598C223.164 273.023 225.595 292.734 233.065 311.245C236.724 310.394 236.517 307.811 237.828 306.079C240.59 302.058 242.902 297.743 246.043 293.957C257.882 279.545 272.69 268.45 294.781 270.005C316.871 271.561 330.747 284.681 341.585 300.062C344.381 304.024 342.275 306.754 340.032 309.807C309.14 351.721 264.751 371.446 206.763 366.603C179.047 364.142 152.936 354.354 132.101 338.617C111.267 322.879 96.758 301.984 90.6151 278.87C88.555 271.365 87.5241 263.682 87.5431 255.975C87.5431 233.433 87.5431 210.89 87.5431 188.465C87.5431 119.341 158.854 67.7993 239.83 75.6069C294.228 80.8609 358.395 124.185 357.394 190.373C357.152 205.754 357.394 221.164 357.394 236.544L357.428 249.664Z" fill="#33CC99"/>
</svg>
