<svg width="52" height="36" viewBox="0 0 52 36" fill="none" xmlns="http://www.w3.org/2000/svg">
<rect width="52" height="36" rx="4" fill="#003D79"/>
<path fill-rule="evenodd" clip-rule="evenodd" d="M3.76127 19.0664C3.76127 18.4207 3.74954 17.8789 3.71436 17.3958H4.93514L4.99238 18.2258H5.02663C5.30333 17.7872 5.80933 17.2686 6.75319 17.2686C7.48991 17.2686 8.06535 17.6844 8.30662 18.3064H8.33031C8.52631 17.9953 8.75574 17.765 9.02023 17.6031C9.33129 17.3845 9.68822 17.2686 10.1486 17.2686C11.0806 17.2686 12.0238 17.9022 12.0238 19.7V23.0066H10.6429V19.9077C10.6429 18.9745 10.3211 18.4207 9.64247 18.4207C9.15829 18.4207 8.80113 18.767 8.65252 19.1705C8.61756 19.3084 8.58308 19.4813 8.58308 19.6415V23.0066H7.20172V19.7574C7.20172 18.9745 6.89148 18.4207 6.23534 18.4207C5.70588 18.4207 5.34954 18.8362 5.22263 19.2271C5.16469 19.3663 5.14146 19.5271 5.14146 19.6881V23.0066H3.76127V19.0664Z" fill="white"/>
<path fill-rule="evenodd" clip-rule="evenodd" d="M17.4039 21.6591C17.4039 22.1658 17.4269 22.6604 17.4845 23.0071H16.2066L16.1149 22.3851H16.0799C15.7348 22.8233 15.1479 23.1339 14.4229 23.1339C13.2948 23.1339 12.6621 22.3165 12.6621 21.4634C12.6621 20.0457 13.9161 19.332 15.9878 19.3434V19.2508C15.9878 18.882 15.8381 18.2717 14.8485 18.2717C14.2958 18.2717 13.7201 18.4447 13.3405 18.6863L13.064 17.7653C13.4791 17.5113 14.2048 17.269 15.0902 17.269C16.8863 17.269 17.4039 18.4104 17.4039 19.6312V21.6591ZM16.0223 20.2652C15.0212 20.2419 14.0662 20.4608 14.0662 21.3136C14.0662 21.8661 14.4229 22.12 14.8719 22.12C15.4352 22.12 15.8501 21.7512 15.9763 21.3481C16.0106 21.2444 16.0223 21.1287 16.0223 21.0369V20.2652Z" fill="white"/>
<path fill-rule="evenodd" clip-rule="evenodd" d="M18.3826 19.0664C18.3826 18.4207 18.37 17.8789 18.3364 17.3958H19.5783L19.6478 18.2369H19.6818C19.9238 17.7996 20.5337 17.2686 21.4657 17.2686C22.4443 17.2686 23.457 17.9022 23.457 19.677V23.0066H22.0416V19.8387C22.0416 19.0316 21.7424 18.4207 20.9712 18.4207C20.4072 18.4207 20.0161 18.8241 19.866 19.2506C19.8208 19.3777 19.8088 19.5509 19.8088 19.711V23.0066H18.3826V19.0664Z" fill="white"/>
<path fill-rule="evenodd" clip-rule="evenodd" d="M29.5942 15.1416V21.428C29.5942 22.004 29.6168 22.6273 29.6399 23.0071H28.3739L28.3172 22.12H28.2938C27.9598 22.7425 27.2798 23.1339 26.4635 23.1339C25.1291 23.1339 24.0699 21.9934 24.0699 20.2652C24.0582 18.3869 25.2321 17.269 26.5785 17.269C27.3493 17.269 27.9022 17.5921 28.155 18.0072H28.1783V15.1416H29.5942ZM28.1783 19.7343C28.1783 19.6202 28.1665 19.4813 28.1443 19.3665C28.0175 18.8134 27.5684 18.3638 26.9239 18.3638C26.0147 18.3638 25.5083 19.1707 25.5083 20.2192C25.5083 21.2444 26.0147 21.9934 26.9124 21.9934C27.4876 21.9934 27.9943 21.6018 28.1322 20.9913C28.1665 20.864 28.1783 20.7259 28.1783 20.5756V19.7343Z" fill="white"/>
<path fill-rule="evenodd" clip-rule="evenodd" d="M30.5945 23.0069H32.023V17.3965H30.5945V23.0069Z" fill="white"/>
<path fill-rule="evenodd" clip-rule="evenodd" d="M33.0234 19.2046C33.0234 18.4445 33.0114 17.9022 32.9771 17.3957H34.2087L34.2538 18.4669H34.3015C34.5773 17.6719 35.2334 17.3957 35.8316 17.3957C35.9694 17.3957 36.0499 17.3721 36.1653 17.3957V18.6405C36.0499 18.6174 35.9236 18.5944 35.7509 18.5944C35.072 18.5944 34.6113 19.0318 34.4849 19.6651C34.4625 19.7919 34.4392 19.9424 34.4392 20.1044V23.0068H33.0234V19.2046Z" fill="white"/>
<path fill-rule="evenodd" clip-rule="evenodd" d="M36.8213 23.0069H38.2477V17.3965H36.8213V23.0069Z" fill="white"/>
<path fill-rule="evenodd" clip-rule="evenodd" d="M36.4838 10.6127C35.627 11.1094 33.606 12.2698 32.8516 12.702C32.3918 12.9365 31.3269 13.0389 30.7246 12.2258C30.7138 12.2111 29.9235 11.2225 29.8912 11.1853C29.8686 11.159 29.3577 10.4003 28.2192 10.3766C28.051 10.3726 27.2147 10.3681 26.3987 10.8324C25.3141 11.4528 22.7916 12.8965 22.7916 12.8965C22.7909 12.8965 22.7909 12.8978 22.7896 12.8978C21.7527 13.4918 20.9448 13.9542 20.9448 13.9542L21.8994 15.1279C22.3459 15.683 23.3529 16.1124 24.2261 15.6105C24.2261 15.6105 27.4527 13.7399 27.4646 13.7345C28.86 12.9683 29.9368 12.9683 30.6514 13.2534C31.2929 13.5248 31.851 14.2009 31.851 14.2009C31.851 14.2009 32.5803 15.1058 32.709 15.2641C33.124 15.7755 33.8108 15.5746 33.8108 15.5746C33.8108 15.5746 34.0654 15.5457 34.449 15.3176C34.449 15.3176 37.5744 13.5034 37.5764 13.5028C38.5688 12.9199 39.479 12.8111 39.9442 12.8539C41.4012 12.9865 41.8539 14.0055 42.4856 14.7164C42.8577 15.1346 43.1934 15.372 43.7067 15.36C44.0441 15.3529 44.4252 15.1481 44.4814 15.1111L48.2239 12.9488C48.2239 12.9488 47.8399 12.3698 47.0535 11.4689C46.3496 10.6651 45.602 11.0288 45.0059 11.3243C44.7555 11.4483 43.8481 12.0526 42.9492 12.4742C42.3086 12.7744 41.3886 12.6841 40.8843 12.0604C40.8542 12.0224 40.0384 11.0337 39.9527 10.912C39.6234 10.4992 38.981 10.1294 38.1577 10.1294C37.6571 10.1294 37.0891 10.2661 36.4838 10.6127Z" fill="url(#paint0_linear_306_2379)"/>
<defs>
<linearGradient id="paint0_linear_306_2379" x1="20.9448" y1="15.8328" x2="48.2239" y2="15.8328" gradientUnits="userSpaceOnUse">
<stop stop-color="#FFCA06"/>
<stop offset="0.330844" stop-color="#FBAA18"/>
<stop offset="0.694742" stop-color="#FFC907"/>
<stop offset="1" stop-color="#FAA619"/>
</linearGradient>
</defs>
</svg>
