<svg width="50" height="36" viewBox="0 0 50 36" fill="none" xmlns="http://www.w3.org/2000/svg">
<rect width="50" height="36" rx="4" fill="#4C3494"/>
<path fill-rule="evenodd" clip-rule="evenodd" d="M40.8465 13.6515C39.6719 12.6059 38.0567 12.1172 36.5031 12.2666C36.1149 12.3023 35.7298 12.3719 35.356 12.4834C33.9869 12.8804 32.7861 13.826 32.0692 15.066C31.1053 16.7012 30.9899 18.7999 31.7339 20.5435C32.2864 21.857 33.3425 22.9472 34.6374 23.5253C36.1079 24.1818 37.8481 24.2017 39.3318 23.5755C40.088 23.2547 40.7739 22.7648 41.3238 22.151C42.3279 21.0454 42.8621 19.5367 42.828 18.0429C42.8193 16.3861 42.098 14.7346 40.8465 13.6515ZM34.1198 15.7256C34.6719 14.8959 35.5825 14.3173 36.5682 14.1939C37.3498 14.0869 38.1694 14.2437 38.8466 14.6566C39.497 15.0457 40.0054 15.656 40.3092 16.3517C40.9094 17.7397 40.7748 19.46 39.8686 20.6841C39.4389 21.264 38.8356 21.716 38.1506 21.939C37.2904 22.2215 36.3217 22.1606 35.5068 21.7628C34.8642 21.4512 34.327 20.9348 33.9707 20.3135C33.1742 18.9184 33.2201 17.0616 34.1198 15.7256ZM15.6021 12.8778C14.5421 12.3239 13.3085 12.1388 12.1291 12.2966C10.9921 12.4442 9.8992 12.9412 9.05115 13.7211C8.18124 14.5055 7.57056 15.5696 7.30653 16.7139C6.98785 18.0724 7.13473 19.5437 7.74454 20.8C8.30452 21.9734 9.27759 22.9415 10.4504 23.4883C11.6119 24.0329 12.9509 24.1633 14.2011 23.8985C15.4023 23.6465 16.5118 22.982 17.3113 22.0443C18.0737 21.1586 18.5484 20.0337 18.6818 18.8709C18.8107 17.7864 18.6512 16.6668 18.2127 15.667C17.693 14.4733 16.757 13.4664 15.6021 12.8778ZM10.8867 14.8201C11.3544 14.4795 11.9092 14.2653 12.4805 14.1913C13.1646 14.1023 13.8767 14.2116 14.4953 14.5231C15.2236 14.8813 15.808 15.5084 16.152 16.2451C16.5428 17.0664 16.6491 18.0134 16.5018 18.9087C16.3658 19.7257 15.9955 20.514 15.4037 21.0956C14.8948 21.6134 14.2181 21.9584 13.5043 22.0699C12.63 22.2087 11.702 22.0179 10.9693 21.512C10.2126 21.0031 9.68151 20.191 9.45201 19.3093C9.22557 18.4386 9.25398 17.4974 9.54993 16.647C9.80172 15.9226 10.2642 15.2669 10.8867 14.8201ZM19.2093 12.5596L19.209 12.5596C19.2087 12.9803 19.2088 13.4011 19.2089 13.822C19.2089 14.0325 19.209 14.243 19.209 14.4535C19.4922 14.4541 19.7752 14.4541 20.0584 14.454C20.1527 14.4539 20.2472 14.4539 20.3416 14.4539C21.0422 16.0785 21.742 17.7036 22.4417 19.3286C22.9495 20.508 23.4573 21.6874 23.9655 22.8665C24.202 23.4138 24.699 23.8408 25.2773 23.9761C25.4877 24.0315 25.7048 24.0293 25.921 24.0271C25.9883 24.0264 26.0554 24.0257 26.1223 24.0267C26.786 22.4509 27.4519 20.8761 28.1177 19.3012C28.9114 17.424 29.7051 15.5468 30.495 13.6683C30.5152 13.4397 30.5121 13.2089 30.509 12.9781C30.5071 12.8383 30.5053 12.6985 30.5086 12.5592H26.8375V12.5596C26.837 13.1913 26.8366 13.8226 26.8375 14.4539C26.9973 14.4541 27.1571 14.454 27.3169 14.454C27.53 14.4539 27.7431 14.4539 27.9561 14.4544C27.6639 15.1761 27.3723 15.8981 27.0808 16.6201C26.5154 18.0202 25.9501 19.4203 25.3796 20.818C24.9347 19.7561 24.49 18.6942 24.0452 17.6324C23.6015 16.573 23.1578 15.5137 22.7139 14.4544C22.9019 14.4537 23.09 14.4538 23.2781 14.4539C23.4662 14.454 23.6544 14.4541 23.8426 14.4535V12.5596C22.2983 12.5587 20.754 12.5592 19.2093 12.5596Z" fill="white"/>
</svg>
