<svg width="50" height="36" viewBox="0 0 50 36" fill="none" xmlns="http://www.w3.org/2000/svg">
<rect width="50" height="36" rx="4" fill="white"/>
<mask id="mask0_306_6419" style="mask-type:luminance" maskUnits="userSpaceOnUse" x="0" y="0" width="50" height="36">
<rect width="50" height="36" rx="4" fill="white"/>
</mask>
<g mask="url(#mask0_306_6419)">
<path fill-rule="evenodd" clip-rule="evenodd" d="M17.874 10.2164L17.8572 10.544L24.1449 17.9132L24.3708 17.9495L24.3992 17.9352L24.5096 17.7316L21.828 8.76446L21.3729 8.45801L17.874 10.2164Z" fill="#0096B8"/>
<path fill-rule="evenodd" clip-rule="evenodd" d="M24.1449 17.9132L24.3705 17.9494L19.7336 10.9017L17.8572 10.5439L24.1449 17.9132Z" fill="#005675"/>
<path fill-rule="evenodd" clip-rule="evenodd" d="M21.373 8.45801L19.77 10.3433L20.4247 10.6292L21.8281 8.76477V8.76446L21.373 8.45801Z" fill="#0BBBEF"/>
<path fill-rule="evenodd" clip-rule="evenodd" d="M20.4241 10.6292L24.3994 17.9352L24.5098 17.731L21.8285 8.76514L20.4241 10.6292Z" fill="#007290"/>
<path fill-rule="evenodd" clip-rule="evenodd" d="M27.6103 8.47725L24.9211 20.604L25.016 20.8315L25.061 20.8517L25.3656 20.7721L32.0379 10.6746L32.0306 10.1478L27.9645 8.28027L27.6103 8.47725Z" fill="#81B73E"/>
<path fill-rule="evenodd" clip-rule="evenodd" d="M29.3296 10.905L25.0618 20.8514L25.3655 20.7718L32.0382 10.6743L29.3296 10.905Z" fill="#69931D"/>
<path fill-rule="evenodd" clip-rule="evenodd" d="M24.9211 20.6033L25.0163 20.8309L28.562 10.4831L27.6103 8.47754L24.9211 20.6033Z" fill="#277933"/>
<path fill-rule="evenodd" clip-rule="evenodd" d="M32.0303 10.1479L29.1758 10.1848L29.3296 10.9053L32.0379 10.6744L32.0306 10.1479H32.0303Z" fill="#AECC53"/>
<path fill-rule="evenodd" clip-rule="evenodd" d="M27.6104 8.47727L28.5611 10.4825L29.1758 10.1852L27.9645 8.28076L27.6104 8.47727Z" fill="#69931D"/>
<path fill-rule="evenodd" clip-rule="evenodd" d="M27.1215 5.04004L21.9165 5.09603L21.7542 5.40734L24.6301 13.6887L24.8009 13.8035L24.806 13.8043L24.9644 13.7128L27.4579 5.38852L27.1215 5.04004Z" fill="#E4032E"/>
<path fill-rule="evenodd" clip-rule="evenodd" d="M21.7542 5.40754L24.6301 13.6889L24.8 13.8038L23.7711 6.41017L21.7542 5.40723V5.40754Z" fill="#791B15"/>
<path fill-rule="evenodd" clip-rule="evenodd" d="M24.7495 6.41137L24.8057 13.8043L24.9641 13.7122L27.4575 5.38867L24.7495 6.41137Z" fill="#B51227"/>
<path fill-rule="evenodd" clip-rule="evenodd" d="M31.2134 27.387C31.2175 27.3002 31.2224 27.1616 31.2266 26.9724V23.3304L31.2154 22.9771C31.2127 22.9023 31.2094 22.8512 31.2057 22.824C31.2021 22.7956 31.1964 22.7713 31.1886 22.7492C31.1626 22.6595 31.1056 22.596 31.0201 22.5575C30.9408 22.5222 30.8235 22.5052 30.6716 22.5041V22.3806L32.635 22.3799C32.9207 22.3811 33.1783 22.4005 33.4084 22.4401C33.6386 22.4786 33.8239 22.5324 33.9658 22.6011C34.376 22.8075 34.5789 23.1547 34.5766 23.6479C34.5816 24.3541 34.1433 24.8043 33.2361 24.9206L33.0839 24.9466C33.288 24.9546 33.5636 25.0261 33.6922 25.0579C33.8196 25.089 33.9444 25.1384 34.0671 25.2058C34.5483 25.4622 34.7855 25.8715 34.7807 26.4388C34.7831 27.1267 34.4665 27.5735 33.8236 27.785C33.6834 27.8276 33.5071 27.8609 33.2943 27.8855C33.0806 27.9099 32.8491 27.9222 32.5986 27.9228H30.6716V27.7987C30.8987 27.7957 31.0548 27.7589 31.1239 27.6728C31.1525 27.6438 31.1731 27.6115 31.1866 27.5746C31.2004 27.5373 31.2088 27.4731 31.2134 27.387ZM31.8178 22.5506V24.8616H32.584C33.475 24.856 33.9364 24.4642 33.9412 23.6792C33.9475 22.9169 33.4615 22.545 32.5184 22.5506H31.8178ZM34.0949 26.3764C34.0895 25.8382 33.9059 25.4571 33.5392 25.2438C33.4277 25.1842 33.2864 25.1378 33.1164 25.1048C32.9469 25.072 32.7595 25.0555 32.5548 25.055H31.8178V27.7527H32.5548C33.0887 27.7551 33.4791 27.6495 33.7195 27.4284C33.8411 27.3217 33.9337 27.1781 33.9979 26.9972C34.0619 26.8165 34.0937 26.6088 34.0949 26.3764Z" fill="black"/>
<path fill-rule="evenodd" clip-rule="evenodd" d="M37.5911 27.7645C37.5512 27.6811 37.5231 27.5819 37.5113 27.3277L37.5076 27.253L37.4604 27.3098C37.4042 27.376 37.3491 27.435 37.2956 27.4843C37.2412 27.5341 37.1782 27.5853 37.1077 27.6369C36.9529 27.7577 36.8035 27.8427 36.6604 27.8921C36.517 27.9414 36.3558 27.9653 36.176 27.9635C35.8628 27.9653 35.6224 27.8865 35.4505 27.7316C35.3547 27.6403 35.279 27.5252 35.2236 27.3856C35.1689 27.2461 35.1406 27.0965 35.1394 26.9354C35.1428 26.3422 35.4864 25.96 36.1897 25.7904C36.3757 25.7446 36.5722 25.707 36.779 25.678C36.986 25.6486 37.2214 25.6243 37.484 25.6055L37.5113 25.0883C37.5113 24.9114 37.5035 24.7678 37.4872 24.6589C37.4709 24.5485 37.4438 24.4521 37.4058 24.3709C37.3017 24.1555 37.0888 24.0523 36.7816 24.0523C36.2884 24.0493 36.0213 24.2984 35.9934 24.7922C35.9909 24.8711 35.9839 24.9268 35.9739 24.9595C35.9646 24.9914 35.9485 25.0145 35.926 25.0315C35.8768 25.0668 35.7986 25.0867 35.6867 25.0883C35.4447 25.0918 35.3542 25.0158 35.3582 24.8875C35.3598 24.7537 35.4019 24.624 35.4859 24.499C35.5706 24.3737 35.688 24.2644 35.8399 24.1719C36.1128 24.0115 36.4624 23.9297 36.8911 23.928C37.3603 23.9297 37.675 24.0419 37.8468 24.2575C37.9164 24.3478 37.968 24.4599 38.0013 24.5956C38.0349 24.7305 38.0519 24.9024 38.0516 25.111L38.051 25.1547L38.0472 25.3571L38.037 25.8914L38.0296 26.6257L38.0224 26.9813C38.0231 27.1486 38.0296 27.2762 38.0409 27.4191C38.0514 27.558 38.0984 27.7134 38.2035 27.7542C38.3128 27.7973 38.4183 27.8143 38.619 27.8155C38.7663 27.8128 38.8798 27.7946 38.9567 27.76C39.0442 27.7209 39.0983 27.6369 39.1218 27.5178C39.1443 27.4021 39.1539 27.2251 39.1518 26.9887V24.9159C39.1566 24.6336 39.1256 24.4351 39.0499 24.3313C38.9756 24.2304 38.8375 24.1866 38.648 24.1889V24.0783L39.6921 23.9983V24.879L39.7465 24.7759C39.9008 24.4849 40.0761 24.2785 40.2715 24.1549C40.4665 24.0312 40.711 23.9694 41.0054 23.9729C41.4485 23.9661 41.7565 24.1231 41.9369 24.4373C42.0033 24.5428 42.0512 24.6692 42.0799 24.8179C42.1085 24.9664 42.1233 25.1559 42.1221 25.3872V26.9887C42.1196 27.2275 42.1289 27.4055 42.1506 27.5212C42.1732 27.6403 42.2261 27.7237 42.3142 27.7617C42.3872 27.794 42.5568 27.811 42.7013 27.8149C42.837 27.811 42.9416 27.7928 43.0135 27.76C43.0988 27.7202 43.1507 27.6363 43.1726 27.5178C43.194 27.4017 43.2033 27.2251 43.2004 26.9887V23.2232C43.2033 23.0072 43.1946 22.8473 43.1743 22.744C43.1529 22.6361 43.1005 22.5624 43.0148 22.5301C42.9403 22.5024 42.8287 22.4893 42.6823 22.4886V22.3788L43.7681 22.3198C43.7545 22.5755 43.7442 22.8363 43.737 23.1035C43.73 23.3819 43.7264 23.6251 43.7264 23.8333V26.3631L44.9224 24.9749C45.0916 24.7765 45.1843 24.6097 45.1857 24.476C45.1941 24.2899 45.0171 24.2059 44.7258 24.1906V24.0806H46.2804V24.1922C46.1871 24.2036 46.1059 24.2219 46.0366 24.2468C45.9615 24.274 45.8845 24.3131 45.8058 24.3635C45.726 24.4145 45.6588 24.4617 45.6048 24.5042C45.5497 24.5478 45.4845 24.6102 45.41 24.6907C45.3353 24.7714 45.2265 24.8933 45.0841 25.0572L44.6894 25.5074L45.7228 27.2298C45.8409 27.4339 45.9494 27.5779 46.0491 27.6595C46.1442 27.7379 46.2657 27.7883 46.4119 27.8121V27.9244H45.4666C45.4407 27.8689 45.4048 27.7962 45.3592 27.7072L45.2089 27.4163L45.0937 27.1973L44.3291 25.8772L43.7279 26.59L43.7264 26.9887C43.7235 27.2251 43.7327 27.4021 43.7545 27.5178C43.7766 27.6369 43.8292 27.7202 43.9159 27.76C43.9919 27.7946 44.1046 27.8128 44.2514 27.8155V27.9244H41.0565V27.8155C41.2729 27.8092 41.4217 27.7719 41.4811 27.6879C41.5049 27.6556 41.523 27.6187 41.536 27.5773C41.5484 27.5359 41.5563 27.482 41.5599 27.4163C41.5642 27.3646 41.5686 27.2897 41.5734 27.1917C41.5789 27.0931 41.5814 27.0255 41.582 26.9893V25.4337C41.5834 25.0503 41.5445 24.7663 41.4626 24.5858C41.3378 24.3018 41.113 24.1595 40.7941 24.1582C40.4383 24.1571 40.1549 24.3364 39.9447 24.6907C39.8655 24.8247 39.804 24.9772 39.7594 25.1473C39.7155 25.3174 39.6925 25.4854 39.6921 25.6498V26.9887C39.6894 27.2275 39.6987 27.4055 39.7203 27.5212C39.7429 27.6403 39.7958 27.7237 39.884 27.7617C39.961 27.7957 40.0754 27.8128 40.2248 27.8155V27.9244H38.6533C38.5141 27.9295 38.2483 27.9369 38.1169 27.9351C37.9787 27.9329 37.9123 27.9176 37.7866 27.9074C37.675 27.8727 37.628 27.8422 37.5911 27.7645ZM35.7381 26.9121C35.7407 27.1645 35.7986 27.3691 35.9142 27.5234C36.0301 27.6788 36.1866 27.7588 36.3801 27.7622C36.5754 27.7595 36.7605 27.7054 36.9328 27.6012C37.1051 27.4963 37.2412 27.3561 37.3395 27.1826C37.3994 27.072 37.4432 26.9297 37.4705 26.7567C37.4978 26.5854 37.5113 26.3717 37.5113 26.1159V25.7189C37.1612 25.7513 36.9108 25.7864 36.7291 25.8273C36.5458 25.8681 36.3841 25.9265 36.2429 26.0036C35.9086 26.1794 35.7407 26.4846 35.7381 26.9121Z" fill="black"/>
<path fill-rule="evenodd" clip-rule="evenodd" d="M4.99475 25.5898V26.9685C4.99203 27.1895 5.00408 27.354 5.03062 27.4612C5.05755 27.5683 5.1153 27.6392 5.20477 27.6738C5.29385 27.7083 5.43122 27.7284 5.61599 27.7317V27.9245H3.57153V27.7317C3.74555 27.7284 3.87438 27.7083 3.95841 27.6738C4.04193 27.6392 4.09592 27.5683 4.12065 27.4612C4.14512 27.354 4.15638 27.1895 4.15379 26.9685V23.3435C4.15613 23.1223 4.14538 22.9579 4.12168 22.8506C4.09786 22.7428 4.04568 22.6715 3.96592 22.6357C3.88591 22.5999 3.76303 22.5791 3.5973 22.5728V22.3799H5.54465C6.2011 22.3771 6.68211 22.4997 6.98742 22.7479C7.29285 22.9964 7.44383 23.3871 7.4402 23.922C7.44253 24.6728 7.16635 25.1643 6.61206 25.3969C6.46756 25.4565 6.28319 25.5035 6.05932 25.5375C5.83493 25.5715 5.58582 25.5892 5.31171 25.5898H4.99475ZM4.99475 25.3749H5.3314C5.73575 25.3731 6.03316 25.2723 6.22414 25.0708C6.32786 24.9545 6.40645 24.8015 6.46031 24.6126C6.51366 24.4243 6.54085 24.2089 6.54111 23.9661C6.53903 23.0532 6.16135 22.5961 5.40908 22.5948H4.99475V25.3749Z" fill="black"/>
<path fill-rule="evenodd" clip-rule="evenodd" d="M10.7316 25.8224H8.35309C8.35543 26.0912 8.37032 26.3168 8.39751 26.4989C8.42457 26.6805 8.4682 26.8466 8.52802 26.9973C8.7256 27.4851 9.03078 27.729 9.44382 27.729C9.67765 27.7273 9.88961 27.6546 10.0801 27.5101C10.2701 27.3655 10.4285 27.1574 10.5545 26.8869L10.7229 27.0049C10.5573 27.3542 10.355 27.6105 10.1161 27.7744C9.87718 27.9377 9.58585 28.0189 9.24157 28.0171C8.70022 28.0097 8.20212 27.8265 7.89034 27.4676C7.5783 27.1085 7.4193 26.6163 7.41309 25.9925C7.4193 25.3635 7.57312 24.8662 7.87442 24.4998C8.17545 24.1336 8.6562 23.9464 9.17437 23.9385C9.51891 23.9392 9.85167 24.0224 10.0878 24.1881C10.324 24.3531 10.4982 24.5953 10.6104 24.914C10.6471 25.0194 10.675 25.1401 10.6938 25.277C10.7127 25.413 10.7254 25.595 10.7316 25.8224ZM8.3597 25.6086H9.84766C9.84157 25.3805 9.83018 25.1969 9.81309 25.058C9.79638 24.9184 9.76945 24.7942 9.73333 24.6848C9.60748 24.297 9.41455 24.1047 9.1543 24.108C8.86233 24.111 8.64468 24.3276 8.50109 24.7585C8.46432 24.8702 8.43505 24.9927 8.41252 25.1254C8.39025 25.2582 8.37252 25.4192 8.3597 25.6086Z" fill="black"/>
<path fill-rule="evenodd" clip-rule="evenodd" d="M10.8837 24.0437L12.2031 23.9473C12.2102 24.0869 12.2154 24.2036 12.219 24.2984C12.2226 24.3937 12.2243 24.4769 12.2243 24.5496V24.7725C12.511 24.2173 12.8572 23.9371 13.263 23.9326C13.4383 23.936 13.5808 23.9904 13.6901 24.0947C13.7996 24.1996 13.8561 24.334 13.8593 24.4975C13.8569 24.6336 13.8095 24.7424 13.7173 24.8246C13.6252 24.9062 13.5041 24.9488 13.3542 24.9505C13.174 24.9567 13.0641 24.8779 13.0243 24.713C12.9983 24.6108 12.9715 24.5417 12.9435 24.5048C12.9158 24.4679 12.875 24.4509 12.8207 24.4527H12.8068C12.6687 24.465 12.5378 24.5813 12.4136 24.8025C12.3577 24.9125 12.3156 25.0339 12.2875 25.167C12.2594 25.3003 12.2454 25.4541 12.2454 25.6277V27.0028C12.2425 27.2224 12.2528 27.384 12.2756 27.4883C12.2982 27.592 12.35 27.66 12.4303 27.6925C12.511 27.7242 12.6362 27.7423 12.8068 27.7463V27.9244H10.8557V27.7463C11.0147 27.7468 11.1327 27.7305 11.2091 27.6971C11.286 27.6636 11.3354 27.5938 11.3582 27.4883C11.3813 27.3816 11.3914 27.2201 11.3893 27.0028V24.9432C11.3955 24.6368 11.3668 24.4379 11.3023 24.346C11.2378 24.2541 11.0984 24.2127 10.8837 24.2224V24.0437Z" fill="black"/>
<path fill-rule="evenodd" clip-rule="evenodd" d="M15.4271 23.9473L15.4342 24.6834C15.7185 24.1879 16.1255 23.9377 16.6555 23.9327C17.1944 23.9292 17.5267 24.189 17.6519 24.7135C17.8042 24.443 17.9785 24.2451 18.1739 24.1197C18.3692 23.9933 18.5976 23.9309 18.8589 23.9327C19.272 23.9348 19.5761 24.079 19.7715 24.3636C19.8476 24.4719 19.9023 24.6034 19.9345 24.7595C19.9671 24.9158 19.9829 25.1184 19.982 25.3674V27.0029C19.9796 27.2201 19.9899 27.3817 20.0127 27.4877C20.0355 27.5938 20.0853 27.6636 20.1617 27.6971C20.2387 27.7306 20.3565 27.7469 20.5155 27.7458V27.9245H18.6133V27.7458C18.7655 27.7469 18.8784 27.7306 18.952 27.6971C19.0258 27.6636 19.0739 27.5938 19.0956 27.4877C19.1181 27.3817 19.128 27.2201 19.1259 27.0029V25.3747C19.1276 24.9841 19.082 24.7022 18.99 24.5292C18.8976 24.3557 18.7487 24.2711 18.5431 24.2746C18.2964 24.2695 18.088 24.4057 17.9187 24.6834C17.7726 24.9149 17.6998 25.1656 17.7009 25.4344V27.0029C17.6988 27.2201 17.7088 27.3817 17.7311 27.4877C17.7536 27.5938 17.8021 27.6636 17.8767 27.6971C17.9516 27.7306 18.0659 27.7469 18.2205 27.7458V27.9245H16.3394V27.7458C16.4914 27.7469 16.6045 27.7306 16.6783 27.6971C16.7519 27.6636 16.7998 27.5938 16.8217 27.4877C16.844 27.3817 16.8542 27.2201 16.8516 27.0029V25.3674C16.8553 24.6313 16.6658 24.2671 16.2832 24.2746C16.0453 24.2836 15.8456 24.4033 15.685 24.633C15.5241 24.8633 15.4405 25.1502 15.4342 25.4938V27.0029C15.432 27.2224 15.4419 27.3856 15.4642 27.4912C15.4863 27.5971 15.5341 27.6664 15.6077 27.6987C15.6816 27.7311 15.7943 27.7469 15.9466 27.7458V27.9245H14.0444V27.7458C14.2037 27.7469 14.3211 27.7311 14.398 27.6987C14.4746 27.6664 14.5244 27.5971 14.5472 27.4912C14.5701 27.3856 14.5803 27.2224 14.5778 27.0029V24.9364C14.5853 24.6336 14.5565 24.4379 14.4918 24.3483C14.4273 24.2582 14.2829 24.2168 14.0587 24.2224V24.0437L15.4271 23.9473Z" fill="black"/>
<path fill-rule="evenodd" clip-rule="evenodd" d="M25.5051 24.2878V26.7707C25.5048 26.9322 25.5105 27.0661 25.5218 27.1721C25.5331 27.2781 25.5509 27.3671 25.5753 27.4397C25.6048 27.5226 25.6509 27.5889 25.7128 27.6389C25.7751 27.6882 25.8439 27.7137 25.9189 27.7148C26.069 27.7126 26.2326 27.6354 26.4105 27.4846L26.5087 27.6699C26.2268 27.9206 25.9065 28.0443 25.5473 28.042C25.1599 28.0358 24.8958 27.8991 24.754 27.6332C24.7263 27.5742 24.7047 27.5073 24.6893 27.4313C24.6742 27.3559 24.6634 27.2544 24.6574 27.1256C24.6515 26.9974 24.6485 26.8244 24.6487 26.6072V24.2878H24.2488V24.065C24.4018 24.0587 24.5312 24.0247 24.6375 23.9628C24.7439 23.9006 24.8365 23.8036 24.9157 23.6708C24.9777 23.5699 25.029 23.4576 25.069 23.3346C25.1093 23.2114 25.1446 23.0584 25.1753 22.8751L25.5263 22.8384C25.5217 22.9364 25.5174 23.0363 25.5144 23.1378C25.5114 23.2387 25.509 23.3606 25.5076 23.5028C25.5059 23.6452 25.5051 23.8279 25.5051 24.0496H26.3545V24.2878H25.5051Z" fill="black"/>
<path fill-rule="evenodd" clip-rule="evenodd" d="M24.2453 27.7671V27.9242C24.0401 27.9384 23.9571 27.9384 23.7412 27.9384C23.5699 27.9384 23.3926 27.9354 23.2453 27.8771C23.1543 27.8408 23.1036 27.8096 23.0356 27.7342C22.9882 27.6543 22.958 27.6496 22.9429 27.428C22.7616 27.6355 22.5731 27.7874 22.3772 27.8856C22.1808 27.9831 21.9695 28.0314 21.7429 28.0303C21.406 28.0263 21.1425 27.9281 20.9522 27.7348C20.762 27.5414 20.6655 27.2755 20.6619 26.9374C20.6607 26.2994 21.035 25.9029 21.7847 25.7481C22.1229 25.6784 22.5064 25.6314 22.9359 25.6064V25.1233C22.9394 24.7364 22.9007 24.4683 22.8201 24.3191C22.7392 24.1699 22.5954 24.0986 22.3885 24.1054C22.1685 24.1002 22.0118 24.1847 21.9182 24.3578C21.8843 24.4178 21.8593 24.4858 21.8436 24.5636C21.8281 24.6407 21.8154 24.7478 21.8059 24.8856C21.8004 25.0184 21.7641 25.1125 21.697 25.1681C21.6301 25.2242 21.5237 25.2514 21.3778 25.2503C21.0525 25.2475 20.8888 25.1334 20.8865 24.9082C20.8875 24.7767 20.926 24.6508 21.0016 24.5318C21.077 24.4121 21.1838 24.3072 21.3218 24.2165C21.6139 24.026 21.9977 23.9318 22.4729 23.9341C22.9558 23.9318 23.302 24.0333 23.5114 24.2391C23.6058 24.3333 23.6751 24.4535 23.7194 24.5993C23.7638 24.7456 23.7855 24.9328 23.785 25.1613L23.7779 25.8078L23.771 26.4543C23.7653 26.6664 23.7627 26.8001 23.764 26.8557C23.7614 27.1241 23.7695 27.3196 23.7878 27.4428C23.8064 27.5664 23.8266 27.6208 23.903 27.6877C24.037 27.7689 24.1519 27.7666 24.2453 27.7671ZM22.9359 26.3504V25.7783C22.4334 25.8141 22.0769 25.9125 21.8664 26.0731C21.6563 26.2341 21.554 26.4848 21.5603 26.8258C21.5624 27.0933 21.6142 27.3055 21.7157 27.4625C21.8168 27.6197 21.9547 27.6997 22.1287 27.7029C22.2715 27.7019 22.4033 27.6582 22.5244 27.572C22.6453 27.4864 22.7402 27.3661 22.8095 27.2125C22.8546 27.1184 22.8869 27.0038 22.9071 26.8676C22.9267 26.7316 22.9364 26.5592 22.9359 26.3504Z" fill="black"/>
<path fill-rule="evenodd" clip-rule="evenodd" d="M30.2881 27.7676V27.9246C30.0828 27.9389 29.9999 27.9394 29.7841 27.9394C29.6127 27.9394 29.4357 27.9365 29.2881 27.8781C29.197 27.8419 29.1464 27.8112 29.0786 27.7346C29.031 27.6552 29.0008 27.6506 28.9857 27.429C28.8045 27.6359 28.6159 27.7884 28.4199 27.8866C28.2236 27.9836 28.0122 28.0324 27.7856 28.0313C27.4487 28.0272 27.1853 27.9286 26.995 27.7357C26.8048 27.5424 26.7083 27.2765 26.7046 26.9384C26.7036 26.3004 27.0779 25.9041 27.8276 25.7492C28.1657 25.6794 28.5493 25.6324 28.9786 25.6074V25.1243C28.9821 24.7375 28.9434 24.4693 28.8629 24.3195C28.7821 24.1703 28.6381 24.0995 28.4312 24.1064C28.2113 24.1013 28.0545 24.1858 27.9609 24.3586C27.927 24.4188 27.902 24.4868 27.8865 24.5646C27.8709 24.6417 27.8582 24.7488 27.8489 24.8866C27.8432 25.0188 27.807 25.1129 27.7398 25.1691C27.673 25.2252 27.5665 25.2524 27.4205 25.2513C27.0954 25.2485 26.9317 25.1346 26.9292 24.9094C26.9303 24.7777 26.9687 24.6518 27.0443 24.5328C27.1197 24.4132 27.2266 24.3081 27.3645 24.218C27.6568 24.027 28.0405 23.9328 28.5156 23.9351C28.9985 23.9328 29.3449 24.0343 29.5543 24.2401C29.6487 24.3343 29.7179 24.4546 29.7621 24.6002C29.8064 24.7466 29.8284 24.9338 29.8277 25.1617L29.8207 25.8087L29.8139 26.4552C29.8082 26.6673 29.8056 26.8011 29.8068 26.8567C29.8043 27.1249 29.8123 27.3206 29.8306 27.4438C29.8492 27.5673 29.8693 27.6219 29.9458 27.6887C30.0797 27.7699 30.1948 27.767 30.2881 27.7676ZM28.9786 26.3516V25.7787C28.4761 25.8151 28.1198 25.9137 27.9093 26.0741C27.6986 26.2353 27.5967 26.4858 27.603 26.8268C27.6052 27.0945 27.657 27.3065 27.7584 27.4635C27.8597 27.6207 27.9976 27.7006 28.1714 27.7039C28.3144 27.7028 28.4462 27.6592 28.5673 27.573C28.6881 27.4874 28.7831 27.3671 28.8521 27.2135C28.8974 27.1193 28.9298 27.0048 28.9497 26.8686C28.9695 26.7325 28.9793 26.5602 28.9786 26.3516Z" fill="black"/>
</g>
</svg>
