<svg width="50" height="36" viewBox="0 0 50 36" fill="none" xmlns="http://www.w3.org/2000/svg">
<rect width="50" height="36" rx="4" fill="#EE4E2C"/>
<g clip-path="url(#clip0_287_60144)">
<path fill-rule="evenodd" clip-rule="evenodd" d="M8.00345 12.7804H20.136C20.9431 12.7804 21.6035 13.4524 21.6035 14.2736V22.9126C21.6035 23.7338 20.9431 24.4059 20.136 24.4059H7.6506C6.84357 24.4059 6.18311 23.7338 6.18311 22.9126V12.2409C6.18311 11.8524 6.49796 11.5836 6.87614 11.5357L18.0642 10.083C18.446 10.083 18.7572 10.3997 18.7572 10.7882V11.996H7.30318C7.30318 12.5024 7.45155 12.7804 8.00164 12.7804H8.00345ZM14.8071 22.2461C13.7866 22.445 12.4747 22.0988 11.7617 21.3181C11.4397 20.9665 11.959 20.4344 12.2829 20.7897C12.7624 21.3163 13.6183 21.5612 14.3167 21.5446C15.207 21.5244 15.9977 20.7013 15.4929 19.7807C14.7926 18.5066 13.07 18.8638 12.1834 17.8622C11.4668 17.0539 11.807 15.7834 12.6484 15.2219C13.526 14.6345 15.0405 14.6566 15.7625 15.4999C16.0737 15.8608 15.5526 16.3929 15.2414 16.0283C14.6587 15.3489 13.2817 15.441 12.7552 16.1406C12.0078 17.1404 13.1261 17.678 13.9078 17.9192C14.9826 18.2507 16.1751 18.8564 16.3705 20.1103C16.5261 21.1193 15.7589 22.0602 14.8071 22.2461Z" fill="white"/>
<path fill-rule="evenodd" clip-rule="evenodd" d="M14.8072 22.246C13.7867 22.4449 12.4748 22.0987 11.7619 21.3181C11.4398 20.9664 11.9591 20.4343 12.283 20.7896C12.7625 21.3162 13.6184 21.5611 14.3168 21.5445C15.2071 21.5243 15.9979 20.7012 15.493 19.7806C14.7945 18.5065 13.0701 18.8637 12.1835 17.8639C11.4669 17.0556 11.8071 15.7852 12.6485 15.2218C13.5261 14.6344 15.0406 14.6565 15.7626 15.4998C16.0739 15.8607 15.5527 16.3928 15.2415 16.0282C14.6588 15.3488 13.2818 15.4409 12.7571 16.1405C12.0098 17.1403 13.128 17.678 13.9097 17.9192C14.9845 18.2506 16.177 18.8563 16.3724 20.1102C16.528 21.1192 15.7608 22.0601 14.809 22.246H14.8072Z" fill="#EE4E2C"/>
<path d="M35.703 12.2501C35.2688 12.2501 34.8797 12.438 34.6119 12.7344V12.3901C34.6119 12.0789 34.1197 12.0771 34.1197 12.3901V16.4665C34.1197 16.7796 34.6119 16.7796 34.6119 16.4665V14.6511C34.8797 14.9475 35.2688 15.1335 35.703 15.1335C36.5083 15.1335 37.1633 14.4872 37.1633 13.6918C37.1633 12.8964 36.5083 12.2501 35.703 12.2501ZM35.703 14.6124C35.1873 14.6124 34.7693 14.1982 34.7693 13.6918C34.7693 13.2352 35.1077 12.8541 35.5528 12.7823C35.5547 12.7823 35.5583 12.7804 35.5601 12.7804C35.6071 12.7731 35.6542 12.7694 35.7012 12.7694C36.0812 12.7694 36.4105 12.9958 36.5553 13.3199C36.5553 13.3217 36.5571 13.3236 36.5571 13.3236C36.6078 13.4359 36.6349 13.5611 36.6349 13.69C36.6349 14.1982 36.2169 14.6106 35.703 14.6106V14.6124ZM32.0768 15.1335C31.2716 15.1335 30.6166 14.4872 30.6166 13.6918C30.6166 12.8964 31.2716 12.2501 32.0768 12.2501C32.882 12.2501 33.5371 12.8964 33.5371 13.6918C33.5371 14.4872 32.882 15.1335 32.0768 15.1335ZM32.0768 12.7712C31.5629 12.7712 31.1431 13.1836 31.1431 13.6918C31.1431 14.2 31.5611 14.6124 32.0768 14.6124C32.5907 14.6124 33.0105 14.2 33.0105 13.6918C33.0105 13.1836 32.5925 12.7712 32.0768 12.7712ZM43.8168 13.6642C43.8041 13.0014 43.4603 12.403 42.7492 12.2704C42.1358 12.1562 41.4192 12.4748 41.1568 13.0419C40.8854 13.6311 40.9994 14.4394 41.535 14.85C42.114 15.2937 43.017 15.1574 43.6123 14.8279C43.8891 14.675 43.6412 14.2571 43.3644 14.4081C42.988 14.6161 42.4958 14.7192 42.0742 14.5793C41.7594 14.4762 41.5821 14.2074 41.5278 13.9054H43.5725C43.7028 13.9054 43.8204 13.7931 43.8186 13.6624L43.8168 13.6642ZM41.5441 13.4212C41.5477 13.4028 41.5531 13.3843 41.5585 13.3678C41.6761 12.9719 42.0779 12.7436 42.485 12.7325C42.9536 12.7197 43.216 13.0382 43.2974 13.4212H41.5441ZM40.5434 13.6679C40.5307 13.0051 40.1869 12.4067 39.4758 12.2741C38.8624 12.1599 38.1458 12.4785 37.8835 13.0456C37.612 13.6347 37.726 14.443 38.2616 14.8536C38.8407 15.2974 39.7436 15.1611 40.3389 14.8315C40.6158 14.6787 40.3679 14.2608 40.091 14.4117C39.7147 14.6198 39.2225 14.7229 38.8009 14.583C38.486 14.4799 38.3087 14.2111 38.2544 13.9091H40.2991C40.4294 13.9091 40.547 13.7968 40.5452 13.666L40.5434 13.6679ZM38.2707 13.4248C38.2743 13.4064 38.2797 13.388 38.2852 13.3715C38.4028 12.9756 38.8045 12.7473 39.2116 12.7362C39.6803 12.7233 39.9427 13.0419 40.0241 13.4248H38.2707ZM30.0375 13.2002V14.8849C30.0375 15.2035 29.5454 15.2035 29.5454 14.8849V13.2334C29.5291 12.9075 29.254 12.7565 29.245 12.7528C28.8958 12.5981 28.2588 12.6699 27.8806 13.1579V14.8849C27.8806 15.2035 27.3885 15.2035 27.3885 14.8849V10.5581C27.3885 10.2414 27.8806 10.2414 27.8806 10.5581V12.5024C28.4832 12.0936 29.2504 12.1397 29.6105 12.3901C29.6105 12.3901 30.043 12.6313 30.0357 13.2021L30.0375 13.2002ZM26.585 10.7569C26.1037 10.2156 25.0922 10.2027 24.5059 10.5802C23.945 10.941 23.717 11.7585 24.1947 12.2759C24.7864 12.9185 25.9372 12.6902 26.4059 13.5059C26.7443 14.0969 26.2141 14.6253 25.6206 14.6382C25.1555 14.6474 24.5838 14.4909 24.2617 14.1521C24.0463 13.9257 23.6989 14.2663 23.9142 14.4928C24.3901 14.9936 25.2677 15.2164 25.9481 15.0875C26.5832 14.9678 27.0971 14.3639 26.9922 13.7158C26.8619 12.9111 26.0657 12.5227 25.3474 12.3091C24.8244 12.1544 24.0771 11.8083 24.5783 11.1675C24.9294 10.7183 25.8486 10.6575 26.2376 11.0957C26.4457 11.3295 26.7931 10.9889 26.585 10.7551V10.7569Z" fill="white"/>
<path fill-rule="evenodd" clip-rule="evenodd" d="M39.4036 26.9171H37.842L39.5121 23.7041L36.7689 18.4309H38.4626L40.359 22.0747L42.2553 18.4309H43.8169L39.4036 26.9171ZM23.8474 24.4038H25.1557V21.9697H26.9199C28.7493 21.9697 30.2331 20.6643 30.2331 19.0532C30.2331 17.4421 28.7493 16.1367 26.9199 16.1367H23.8474C23.8474 18.893 23.8474 21.6475 23.8474 24.4038ZM25.1557 20.6385V17.4679H26.9199C27.9133 17.4679 28.7204 18.1768 28.7204 19.0532C28.7204 19.9278 27.9151 20.6385 26.9199 20.6385H25.1557ZM35.1332 18.4843H36.2822V24.3522H35.1332V23.6931C34.6211 24.1368 33.957 24.4038 33.2332 24.4038C31.6119 24.4038 30.2982 23.0671 30.2982 21.4173C30.2982 19.7676 31.6119 18.4309 33.2332 18.4309C33.9588 18.4309 34.6211 18.6979 35.1332 19.1416V18.4824V18.4843ZM33.2332 19.6903C34.1705 19.6903 34.9305 20.4636 34.9305 21.4173C34.9305 22.3711 34.1705 23.1444 33.2332 23.1444C32.2959 23.1444 31.5359 22.3711 31.5359 21.4173C31.5359 20.4636 32.2959 19.6903 33.2332 19.6903Z" fill="white"/>
</g>
<defs>
<clipPath id="clip0_287_60144">
<rect width="38" height="17" fill="white" transform="translate(6 10)"/>
</clipPath>
</defs>
</svg>
